<svg viewBox="0 0 22 18" version="1.1" xmlns="http://www.w3.org/2000/svg" xmlns:xlink="http://www.w3.org/1999/xlink">
    <g stroke="none" stroke-width="1" fill="none" fill-rule="evenodd">
        <g transform="translate(-264.000000, -553.000000)" fill="#C3A063" fill-rule="nonzero">
            <g transform="translate(264.000000, 553.000000)">
                <path d="M17.250049,17.4166667 C14.9961275,17.4166667 11.8525,15.728836 11.8525,10.6653439 C11.8525,4.5542328 16.0044608,1.3531746 17.3686765,0.247354497 C17.7838725,-0.0436507937 18.1990686,-0.16005291 18.6735784,0.363756614 L19.5632843,1.23677249 C19.9784804,1.70238095 19.8598529,2.22619048 19.5039706,2.51719577 C18.8515196,2.98280423 15.3520098,5.54365079 15.2926961,9.50132275 C15.2926961,9.50132275 16.3010294,9.09391534 17.6652451,9.09391534 C19.9784804,9.09391534 21.9358333,10.8981481 21.9358333,13.2261905 C21.9358333,15.4960317 19.9784804,17.4166667 17.250049,17.4166667 Z"/>
                <path d="M5.79171569,17.4166667 C3.53779412,17.4166667 0.394166667,15.728836 0.394166667,10.6653439 C0.394166667,4.5542328 4.54612745,1.3531746 5.91034314,0.247354497 C6.32553922,-0.0436507937 6.74073529,-0.16005291 7.2152451,0.363756614 L8.10495098,1.23677249 C8.52014706,1.70238095 8.40151961,2.22619048 8.04563725,2.51719577 C7.39318627,2.98280423 3.89367647,5.54365079 3.83436275,9.50132275 C3.83436275,9.50132275 4.84269608,9.09391534 6.20691176,9.09391534 C8.52014706,9.09391534 10.4775,10.8981481 10.4775,13.2261905 C10.4775,15.4960317 8.52014706,17.4166667 5.79171569,17.4166667 Z"/>
            </g>
        </g>
    </g>
<script xmlns=""/></svg>