<svg viewBox="0 0 74.66 24" xmlns="http://www.w3.org/2000/svg"><path d="m9.44 18.62a9.44 9.44 0 0 1 -9.44-9.31 9.44 9.44 0 0 1 9.44-9.31 8.88 8.88 0 0 1 6.39 2.57l-1.83 1.79a6.49 6.49 0 0 0 -4.56-1.82 6.68 6.68 0 0 0 -6.67 6.77 6.68 6.68 0 0 0 6.67 6.77 6.25 6.25 0 0 0 4.71-1.87 5.31 5.31 0 0 0 1.38-3.21h-6.09v-2.53h8.56a7.58 7.58 0 0 1 .14 1.59 8.4 8.4 0 0 1 -2.2 6 8.53 8.53 0 0 1 -6.5 2.56z" fill="#4285f4"/><path d="m31.38 12.62a5.91 5.91 0 1 1 -11.81 0 5.91 5.91 0 1 1 11.81 0zm-2.59 0a3.33 3.33 0 1 0 -6.64 0 3.33 3.33 0 1 0 6.64 0z" fill="#e94235"/><path d="m44.62 12.62a5.91 5.91 0 1 1 -11.81 0 5.91 5.91 0 1 1 11.81 0zm-2.58 0a3.33 3.33 0 1 0 -6.64 0 3.33 3.33 0 1 0 6.64 0z" fill="#fabb05"/><path d="m57.54 7v10.76c0 4.42-2.61 6.24-5.7 6.24a5.69 5.69 0 0 1 -5.31-3.54l2.29-1a3.32 3.32 0 0 0 3 2.14c2 0 3.2-1.23 3.2-3.52v-.86h-.02a4.12 4.12 0 0 1 -3.16 1.36 6 6 0 0 1 0-12 4.18 4.18 0 0 1 3.16 1.42v-1zm-2.32 5.66a3.38 3.38 0 0 0 -3.22-3.66 3.47 3.47 0 0 0 -3.34 3.66 3.44 3.44 0 0 0 3.34 3.6 3.35 3.35 0 0 0 3.22-3.61z" fill="#4285f4"/><path d="m62.15.64v17.62h-2.63v-17.62z" fill="#34a853"/><path d="m72.51 14.6 2 1.36a6 6 0 0 1 -5 2.66 5.8 5.8 0 0 1 -5.87-6c0-3.56 2.48-6 5.57-6a5.58 5.58 0 0 1 5.13 3.81l.27.69-8 3.31a3.06 3.06 0 0 0 2.91 1.82 3.43 3.43 0 0 0 2.99-1.65zm-6.29-2.16 5.36-2.22a2.33 2.33 0 0 0 -2.23-1.22 3.28 3.28 0 0 0 -3.13 3.44z" fill="#e94235"/></svg>