<?xml version="1.0" encoding="utf-8"?>
<!-- Generator: Adobe Illustrator 25.2.1, SVG Export Plug-In . SVG Version: 6.00 Build 0)  -->
<svg version="1.1" id="Layer_1" xmlns="http://www.w3.org/2000/svg" xmlns:xlink="http://www.w3.org/1999/xlink" x="0px" y="0px"
	 viewBox="0 0 600 600" style="enable-background:new 0 0 600 600;" xml:space="preserve">
<style type="text/css">
	.st0{fill:#69A7DA;}
	.st1{fill:#A7A8AA;}
	.st2{fill:#212455;}
	.st3{fill:#FFFFFF;}
	.st4{fill:#1E2256;}
	.st5{fill:#006FCF;}
	.st6{fill:#35C4B5;}
	.st7{clip-path:url(#SVGID_2_);}
	.st8{fill:#D0D5E3;}
</style>
<path class="st0" d="M361.1,137.8c-0.1-0.3-0.1-0.5-0.4-0.8l-1.6-13.6c-0.2-1.9-0.1-1.8,1.9-1.7c1.6,0.1,2.8,1.4,3,3l0.8,6.7
	c0.2,1.1,1.2,1.9,2.4,1.8l13.2-0.5c0,0,0.1,0,0.2,0c2.1,0.4,2.6,2.8,1.2,4.3c-0.2,0.1-0.2,0.2-0.2,0.3c0,0.2,0.2,0.3,0.5,0.4
	c1.8,0.7,2.2,3,0.8,4.2c-0.4,0.3-0.6,0.6-0.6,0.8s0.4,0.5,0.9,0.7c1.7,0.8,1.9,3.2,0.4,4.3c-0.4,0.3-0.6,0.5-0.6,0.7
	c0.1,0.2,0.3,0.4,0.8,0.6c1.9,0.8,1.3,3.3,0.2,4.4c-0.2,0.2,0,0,0,0c-3.8,3.6-12.5,5-12.5,5l-6.6-0.5
	C364.9,157.9,362.8,148.3,361.1,137.8"/>
<path class="st1" d="M329.3,140.3c-5.7,0.7-9.8,5.9-9.2,11.7l6.4,53.9c2.4,19.7,23.1,16.9,20.8-2.9l-6.4-53.5
	C340.3,143.8,335,139.6,329.3,140.3"/>
<path class="st1" d="M333.6,218.7c9.3,4.8,15.1-4.5,15-4.6l1.9-3l21.3-48c3.6-5.9,4-12.4,1.9-13.7c-2.2-1.2-5-0.6-6.6,1.3
	c-1.4,1.7-3.2,3.9-4.8,6.6l-31.9,41.5c-2,3.3-3.4,8.8-3.9,7.1C326.5,205.9,327.1,215.3,333.6,218.7"/>
<path class="st2" d="M376.6,160c0-0.3,0-0.5-0.1-0.6C376.4,160.5,376.5,159,376.6,160"/>
<path class="st2" d="M376.7,161.2c-0.1,0-0.3,0.3-0.4,0.4C376.5,162.1,376.6,161.4,376.7,161.2"/>
<path class="st3" d="M374.8,107c-7.7,1.8-11.7,9.9-11.7,9.9l9.4,49.1l9.2-1.1L374.8,107z"/>
<path class="st1" d="M361.1,137.8c-0.1-0.3-0.1-0.5-0.4-0.8l-1.6-13.6c-0.2-1.9-0.1-1.8,1.9-1.7c1.6,0.1,2.8,1.4,3,3l0.8,6.7
	c0.2,1.1,1.2,1.9,2.4,1.8l13.2-0.5c0,0,0.1,0,0.2,0c2.1,0.4,2.6,2.8,1.2,4.3c-0.2,0.1-0.2,0.2-0.2,0.3c0,0.2,0.2,0.3,0.5,0.4
	c1.8,0.7,2.2,3,0.8,4.2c-0.4,0.3-0.6,0.6-0.6,0.8s0.4,0.5,0.9,0.7c1.7,0.8,1.9,3.2,0.4,4.3c-0.4,0.3-0.6,0.5-0.6,0.7
	c0.1,0.2,0.3,0.4,0.8,0.6c1.9,0.8,1.3,3.3,0.2,4.4c-0.2,0.2,0,0,0,0c-3.8,3.6-12.5,5-12.5,5l-6.6-0.5
	C364.9,157.9,362.8,148.3,361.1,137.8"/>
<path class="st1" d="M243.6,555c-1.1,0.6-0.7,2.4,0.8,2.3h11.8c2.9,0,5.6-1.1,7.8-3l13.2-11.8c0,0,6.4-1.6,7.5-7.1
	c0.6-2.7-0.7-6.4-4.4-9.5l-0.2-1.7l5.3-230.3c0,0,0.3-0.1,0.8-0.4c0.5,0.2,0.8,0.4,0.8,0.4l6.9,230.3l-0.2,1.6
	c-3.7,3.2-5.1,6.9-4.5,9.7c1.2,5.5,7.5,7.1,7.5,7.1l13.2,11.8c2.1,1.9,4.9,3,7.8,3h11.8c1.4,0,1.8-1.8,0.6-2.4l-11.9-7.1l-5-10.2
	c-4.3-8.8-5.8-18.7-4.3-28.4l9.4-54.8c1.1-14-0.7-28.1-2.8-42l1.4-15.8l14.3-75.4c1.1-21.9-2.7-52.3-8.7-73.4l-8.9-26.9
	c-29.9-23.3-55.5,0-55.5,0l-6.9,26.9c-6,21.1-9.8,51.5-8.7,73.4l14.3,75.4l1.4,15.8c-2.1,13.9-4,28-2.8,42l9.4,54.8
	c1.5,9.7,0,19.6-4.3,28.4l-4.9,10.1L243.6,555"/>
<path class="st1" d="M254.6,114.5c6-1.1,7.4,17.1,6.5,23.1l-7.8,31.5l-6.7,35.8l-15.5,63.9c-1.1,7.4-2.6,11.1-5.2,10.7
	c0,0-5-6.9-3.9-14.2l3.8-65.6l9.6-65.3C236.3,128.3,243.7,116.6,254.6,114.5"/>
<path class="st1" d="M231.9,286.2c0,0.2,0,0.4,0,0.8l-2.3,15.1c-0.2,1.4-1.5,2.3-2.9,2l0,0c-1.2-0.3-2-1.5-1.8-2.7l1.5-9.9
	c0.2-1.3-0.7-2.4-1.9-2.6l0,0c-1.3-0.2-2.4,0.7-2.6,1.9c-0.4,2.3-0.6,4-0.9,5.9c-0.4,3-0.4,6,0.2,8.9l1.5,7.5
	c0.6,1.7-0.3,3.5-1.9,4.2c-1,0.4-2.1-0.2-2.4-1.2l-4.4-12.7c-0.2-0.6-0.4-2.7-0.3-3.3c0,0,2.8-18.3,3-18.6c2.2-10,5.2-16.1,5.2-16.1
	l9.1,3.5C231,268.9,233.1,274.9,231.9,286.2"/>
<path class="st1" d="M321,147.9c0-19.8,22.4-29.4-10.4-36.1c-5.2-1-11.3-4.3-11.3-9.5l-0.9-9.2c2.6-2.7,4.9-5.8,5.9-8.8h1.4
	c1.6,0,2.9-1.3,2.9-2.9v-8c0-1.6-1.3-2.9-2.9-2.9h-0.8v-7.3c0-9.7-9-13.9-17.7-13.9s-17.7,4.2-17.7,13.9v7.3h-0.8
	c-1.6,0-2.9,1.3-2.9,2.9v8c0,1.6,1.3,2.9,2.9,2.9h1.4c1.2,3.5,4.1,7,7.1,10l-0.7,8c0,5.2-6.1,8.6-11.3,9.5
	c-29.1,5.2-13.1,16.2-13.1,36.1l6,73.2h55.5L321,147.9z"/>
<path class="st4" d="M287.3,87.9c2.2,0,4.1,0.6,5.1,1.5c-1,0.9-2.9,1.5-5.1,1.5s-4.1-0.6-5.1-1.5C283.2,88.5,285.1,87.9,287.3,87.9"
	/>
<path class="st3" d="M288.5,44c12.8-9,28.4,19.7,29.9,37.5c0.9,10.4-2.8,20.2-11.5,20.8c-5.8,0.4-13.9,0-13.9,0s8.3-9.2,8.3-22.9
	c0-11.7-2.1-20.5-10.2-30c-0.3,4-7.4,23-24.3,20.9C266.8,44.3,289.2,45,288.5,44"/>
<path class="st3" d="M287.3,49.1c2.8,0,5.6,0.5,8.2,1.4l-6.9-6.5c-10.4-6.6-20.2,3.7-24.2,18.3c-1.3,4.8-2.2,9.3-3,12.8
	c-0.7,3.2-0.9,6.2-1.2,10.3c-0.5,8.2,2.3,16.9,13.2,16.9c1,0,2.1,0,3.2,0.1c0-0.1,0-0.2,0-0.3l0.7-8c-3.1-3-5.9-6.5-7.1-10h-1.4
	c-1.6,0-2.9-1.3-2.9-2.9v-8c0-1.6,1.3-2.9,2.9-2.9h0.8V63C269.6,53.3,278.6,49.1,287.3,49.1"/>
<path class="st5" d="M279,543.2L262.2,558H242c-1.5,0-1.9-2-0.6-2.7l13.6-8.1c1.2-0.6,3.9,3.4,3.9,3.4c1.7,0,7-4.5,11.7-9.2
	c5.4-5.5,9.7-9.1,9.7-16.7c5.8,3.9,6,6.9,5.2,10.5c-1.3,6.2-3.4,14.2-3.4,22.8h-2.4L279,543.2z"/>
<path class="st5" d="M294.8,543.2l16.8,14.8h20.2c1.5,0,1.9-2,0.6-2.7l-13.6-8.1c-1.2-0.6-3.9,3.4-3.9,3.4c-1.7,0-7-4.5-11.7-9.2
	c-5.4-5.5-9.7-9.1-9.7-16.7c-5.8,3.9-6,6.9-5.2,10.5c1.3,6.2,3.4,14.2,3.4,22.8h2.4L294.8,543.2z"/>
<path class="st6" d="M255.2,193.8c1.6,15.3-4.2,44.1-8.9,63.8c-3.7,15.4-5.9,31-6.6,46.8l-11.4,89.2h115.1l-8.4-89.2
	c-0.8-15.9-3-31.7-6.7-47.2c-4.7-19.6-10.4-48.1-8.7-63.6l5-37.6l18-0.5c0-20.5-5-44.6-28.2-44.6c0,0-9.4,14.6-26.2,14.6
	c-16.8,0-26.2-14.6-26.2-14.6c-24.3,0-29.9,24.1-29.9,44.6l18.1,0.3L255.2,193.8z"/>
<g>
	<g>
		<g>
			<g>
				<defs>
					<path id="SVGID_1_" d="M254.6,114.5c6-1.1,7.4,17.1,6.5,23.1l-7.8,31.5l-6.7,35.8l-15.5,63.9c-1.1,7.4-2.6,11.1-5.2,10.7
						c0,0-5-6.9-3.9-14.2l3.8-65.6l9.6-65.3C236.3,128.3,243.7,116.6,254.6,114.5"/>
				</defs>
				<clipPath id="SVGID_2_">
					<use xlink:href="#SVGID_1_"  style="overflow:visible;"/>
				</clipPath>
				<g class="st7">
					<path class="st4" d="M230.7,197.6c-0.9-2-1.6-5.8,1-8.7c1.9-2.2,5-3.3,8.2-3c1,0.1,1.7,1,1.6,1.9c-0.1,1-1,1.7-1.9,1.6h-0.4
						l-0.1,0.8h0.4c1.4,0.2,2.7-0.9,2.8-2.3c0.2-1.4-0.9-2.7-2.3-2.8c-3.6-0.3-6.9,1-8.9,3.3c-2.4,2.6-2.5,6.4-1.3,9.2
						c0.3,0.1,0.6,0.2,1,0.3C230.8,197.8,230.7,197.7,230.7,197.6z"/>
					<path class="st4" d="M221.1,234.8v3c0.8-2.3,1.4-5,1.7-8.4c0.4-4.3-0.3-9.7-1-13c-0.1,0.8-0.3,1.7-0.4,2.5
						c0.3,2.5,0.9,7.4,0.6,10.4C221.8,231.4,221.5,233.2,221.1,234.8z"/>
					<path class="st4" d="M227.6,204.3c-1-1.3-1.7-2.8-2.1-4.3l-0.2,2.1c0.4,1,0.9,1.9,1.6,2.7c0,0.1,0.5,0.7,1.1,1.2l0,0
						c0-0.5-0.1-1-0.2-1.4C227.7,204.5,227.6,204.3,227.6,204.3z"/>
					<path class="st4" d="M226.3,190.7l-0.2,2.3c0.2-0.5,0.4-1,0.7-1.5c2.7-5.1,8-8.1,13.3-7.7c2.1,0.2,3.7,2.1,3.5,4.2
						s-2.1,3.7-4.2,3.5c-1-0.1-1.7-1-1.6-1.9c0.1-1,0.9-1.7,1.9-1.6h0.4l0.1-0.8h-0.4c-1.4-0.2-2.7,0.9-2.8,2.3
						c-0.2,1.4,0.9,2.7,2.3,2.8c2.6,0.2,4.9-1.7,5.1-4.3s-1.7-4.9-4.3-5.1C234.7,182.5,229.2,185.5,226.3,190.7z"/>
					<path class="st4" d="M222.6,254.3c-0.4,0.4-0.8,0.8-1.2,1.3v1.4c0.5-0.8,1.1-1.5,1.8-2.1c0.1-0.1,0.3-0.2,0.4-0.3
						c0.2-0.4,0.3-0.8,0.4-1.3l0,0C223.3,253.7,222.8,254.2,222.6,254.3z"/>
					<path class="st4" d="M226.4,230.2c-0.7,7.8-2.9,12.2-5,16.4v1.8c0.2-0.4,0.4-0.7,0.6-1.1c1.4-2.8,3.3-3.1,6.4-2.9
						c-0.6,3.4-4.4,4.2-6.9,7.3v1.9c0.6-0.5,1.7-0.7,3.6-0.6c-0.3,2.7-1.4,3.9-2.4,5.4l-1.1,1.4v1.3l2-2.6c1-1.5,2.1-2.8,2.4-5.9
						v-0.4h-0.4c-1.2-0.1-2.5-0.2-3.6,0.2c2.5-3.3,6.9-4.1,7.3-8.4v-0.4h-0.4c-1.6-0.2-3.7-0.3-5.4,0.7c1.6-3.6,3.2-7.7,3.7-14.1
						c0.6-6.4-0.2-10.7-1.3-14.5c1.5,1.3,3.5,1.5,5.2,1.6h0.4v-0.4c0.4-4.3-3.9-5.8-5.8-9.5c0.9,0.5,2.2,0.7,3.5,0.8h0.4v-0.4
						c0.4-5-2-5.7-2.2-9.6c0.8,1,2.3,1.7,4.4,1.9h0.4v-0.4c0.3-3.3-0.5-4.5-0.3-6.6c0.2-1.6,1.2-3,2.8-3.9c-0.4,2.8,1.6,5.3,4.3,5.5
						c3.7,0.3,7.1-2.6,7.4-6.3s-2.5-7.1-6.3-7.4c-2.7-0.2-5.2,0.2-7.6,1.3l-1,0.5c-1.9,1-3.6,2.5-5.1,4.2l-0.1,1.5
						c3.3-4.4,8.4-7.1,13.8-6.6c3.3,0.3,5.8,3.2,5.5,6.5s-3.2,5.8-6.5,5.5c-2.6-0.3-4.2-2.9-3.3-5.3l0.4-0.9l-0.9,0.4
						c-2.4,0.9-3.9,2.8-4.1,4.9s0.5,3.3,0.3,6.1c-2.8-0.3-4.4-1.5-3.8-4.2c-0.1-1.1,0-2,0.2-2.9c-0.7,1.4-1.2,2.9-1.3,4.6
						c-0.5,5.3,2.4,5.7,2.2,10.5c-2.5-0.3-3.4-0.9-3.8-1.9l-0.2,2.1c1.9,3.8,5.8,5.2,5.8,8.8c-3.1-0.3-4.9-1-5.8-4
						c-0.1-0.5-0.3-0.9-0.4-1.4c-0.3,0.2-0.5,0.4-0.7,0.7C225.2,216.2,227,221.1,226.4,230.2z"/>
					<path class="st4" d="M229.2,213.9c-1.9-1.1-3.4-2.7-4.3-4.7c0.3,0.9,0.5,1.7,0.8,2.5c0.1,0.2,0.1,0.3,0.2,0.5
						c0.9,1.1,2,2,3.3,2.7c0.2,0,0.3,0.1,0.5,0.1C229.6,214.6,229.4,214.3,229.2,213.9z"/>
					<path class="st4" d="M222.8,247.1c-0.4,0.8-0.8,1.5-1.2,2.3c1.3-1.8,3-3.2,5-3.9c0.2-0.3,0.4-0.6,0.6-0.9c-0.2,0-0.3,0-0.5,0
						c-1.3,0.5-2.6,1.2-3.7,2.1C222.9,246.9,222.8,247.1,222.8,247.1z"/>
					<path class="st4" d="M224,229.5c-0.4,5.1-1.6,8.7-2.9,11.8v2c1.7-3.5,3.2-7.5,3.7-13.7c0.7-7.6-0.7-12.2-2.1-16.6
						c-0.1,0.3-0.3,0.7-0.4,1.1v0.2C223.6,218.3,224.7,222.7,224,229.5z"/>
				</g>
			</g>
		</g>
	</g>
</g>
<g>
	<path d="M337.2,243.1l0.1,14.6h-9.4v118.7c0,13.5-10.9,24.4-24.4,24.4h-31.4c-13.5,0-24.4-10.9-24.4-24.4V257.7h-9.6v-14.6h9.6
		v-67.9v-10.9V114l10-3.4v53.7h59.9v-53.7l10,3.4v50.2h0.2v78.9H337.2L337.2,243.1z"/>
	<path class="st8" d="M299.1,390.7h-2.3v-0.9h2.3c0.4,0,0.8,0,1.1,0v0.9C299.8,390.7,299.5,390.7,299.1,390.7 M293.3,390.8h-3.4
		v-0.9h3.4V390.8z M286.5,390.8h-3.4v-0.9h3.4V390.8z M279.7,390.8h-3.4c-0.5,0-1,0-1.5,0v-0.9c0.5,0,1,0,1.5,0h3.4V390.8z
		 M303.6,390.4l-0.1-0.8c1.1-0.2,2.2-0.5,3.2-0.8l0.3,0.8C305.9,389.9,304.8,390.2,303.6,390.4 M271.4,390.4
		c-1.2-0.2-2.4-0.5-3.4-0.9l0.3-0.8c1,0.3,2,0.6,3.2,0.8L271.4,390.4z M310.2,388.1l-0.4-0.8c1-0.5,1.8-1.2,2.6-2l0.6,0.6
		C312.1,386.8,311.2,387.5,310.2,388.1 M264.9,388c-1-0.7-1.9-1.4-2.7-2.3l0.6-0.6c0.7,0.8,1.6,1.5,2.5,2.1L264.9,388z M315.1,383.2
		l-0.8-0.5c0.6-0.9,1-1.9,1.4-3l0.8,0.3C316.1,381.2,315.7,382.2,315.1,383.2 M260.1,382.8c-0.5-1-0.9-2-1.3-3.2l0.8-0.3
		c0.4,1.1,0.8,2.2,1.3,3.1L260.1,382.8z M317.3,376.6l-0.9-0.2c0.2-1,0.3-2.1,0.4-3.3l0.9,0.1C317.6,374.4,317.5,375.5,317.3,376.6
		 M257.9,376.2c-0.2-1-0.3-2.2-0.4-3.4l0.9-0.1c0.1,1.1,0.2,2.3,0.4,3.3L257.9,376.2z M317.9,369.7H317v-3.4h0.9V369.7z
		 M258.4,369.3h-0.9v-3.4h0.9V369.3z M317.9,362.9H317v-3.4h0.9V362.9z M258.4,362.5h-0.9v-3.4h0.9V362.5z M317.9,356.1H317v-3.4
		h0.9V356.1z M258.4,355.6h-0.9v-3.4h0.9V355.6z M317.9,349.2H317v-3.4h0.9V349.2z M258.4,348.8h-0.9v-3.4h0.9V348.8z M317.9,342.4
		H317V339h0.9V342.4z M258.4,342h-0.9v-3.4h0.9V342z M317.9,335.6H317v-3.4h0.9V335.6z M258.4,335.2h-0.9v-3.4h0.9V335.2z
		 M317.9,328.8H317v-3.4h0.9V328.8z M258.4,328.3h-0.9v-3.4h0.9V328.3z M317.9,321.9H317v-3.4h0.9V321.9z M258.4,321.5h-0.9v-3.4
		h0.9V321.5z M317.9,315.1H317v-3.4h0.9V315.1z M258.4,314.7h-0.9v-3.4h0.9V314.7z M317.9,308.3H317v-3.4h0.9V308.3z M258.4,307.9
		h-0.9v-3.4h0.9V307.9z M317.9,301.5H317v-3.4h0.9V301.5z M258.4,301h-0.9v-3.4h0.9V301z M317.9,294.6H317v-3.4h0.9V294.6z
		 M258.4,294.2h-0.9v-3.4h0.9V294.2z M317.9,287.8H317v-3.4h0.9V287.8z M258.4,287.4h-0.9V284h0.9V287.4z M317.9,281H317v-3.4h0.9
		V281z M258.4,280.6h-0.9v-3.4h0.9V280.6z M317.9,274.2H317v-3.4h0.9V274.2z M258.4,273.7h-0.9v-3.4h0.9V273.7z M317.9,267.3H317
		v-3.4h0.9V267.3z M258.4,266.9h-0.9v-3.4h0.9V266.9z M317.9,260.5H317v-3.4h0.9V260.5z M258.4,260.1h-0.9v-3.4h0.9V260.1z
		 M317.9,253.7H317v-3.4h0.9V253.7z M258.4,253.3h-0.9v-3.4h0.9V253.3z M317.9,246.9H317v-3.4h0.9V246.9z M258.4,246.4h-0.9V243h0.9
		V246.4z M317.9,240H317v-3.4h0.9V240z M258.4,239.6h-0.9v-3.4h0.9V239.6z M317.9,233.2H317v-3.4h0.9V233.2z M258.4,232.8h-0.9v-3.4
		h0.9V232.8z M317.9,226.4H317V223h0.9V226.4z M258.4,225.9h-0.9v-3.4h0.9V225.9z M317.9,219.6H317v-3.4h0.9V219.6z M258.4,219.1
		h-0.9v-3.4h0.9V219.1z M317.9,212.7H317v-3.4h0.9V212.7z M258.4,212.3h-0.9v-3.4h0.9V212.3z M317.9,205.9H317v-3.4h0.9V205.9z
		 M258.4,205.5h-0.9v-3.4h0.9V205.5z M317.9,199.1H317v-3.4h0.9V199.1z M258.4,198.6h-0.9v-3.4h0.9V198.6z M317.9,192.2H317v-3.4
		h0.9V192.2z M258.4,191.8h-0.9v-3.4h0.9V191.8z M317.9,185.4H317V182h0.9V185.4z M258.4,185h-0.9v-3.4h0.9V185z M317.9,178.6H317
		v-3.4h0.9V178.6z M258.4,178.2h-0.9v-3.4h0.9V178.2z M316.9,172.8h-3.4v-0.9h3.4V172.8z M310.1,172.8h-3.4v-0.9h3.4V172.8z
		 M303.3,172.8h-3.4v-0.9h3.4V172.8z M296.4,172.8H293v-0.9h3.4V172.8z M289.6,172.8h-3.4v-0.9h3.4V172.8z M282.8,172.8h-3.4v-0.9
		h3.4V172.8z M276,172.8h-3.4v-0.9h3.4V172.8z M269.1,172.8h-3.4v-0.9h3.4V172.8z M262.3,172.8h-3.4v-0.9h3.4V172.8z"/>
	<g>
		<path class="st3" d="M270.8,168.8c-3.3,0-5.9-2.7-5.9-5.9c0-3.3,2.7-5.9,5.9-5.9c3.3,0,5.9,2.7,5.9,5.9
			C276.7,166.2,274,168.8,270.8,168.8 M270.8,158.7c-2.3,0-4.1,1.9-4.1,4.1s1.8,4.1,4.1,4.1c2.2,0,4.1-1.9,4.1-4.1
			S273.1,158.7,270.8,158.7"/>
		<path class="st3" d="M283.3,168.8c-3.3,0-5.9-2.7-5.9-5.9c0-3.3,2.7-5.9,5.9-5.9c3.3,0,5.9,2.7,5.9,5.9
			C289.2,166.2,286.5,168.8,283.3,168.8 M283.3,158.7c-2.3,0-4.1,1.9-4.1,4.1s1.8,4.1,4.1,4.1c2.2,0,4.1-1.9,4.1-4.1
			S285.6,158.7,283.3,158.7"/>
		<path class="st3" d="M278.4,180.6c0-0.1,0-7.9,4-11.9l-2-2c-4.8,4.8-4.8,13.5-4.8,13.9H278.4z"/>
		<path class="st3" d="M278.4,180.6c0-0.4,0-9.1-4.8-13.9l-2,2c4,4,4,11.8,4,11.9H278.4"/>
		<path class="st3" d="M279.3,181.3c0,20-2.3,30.4-2.3,30.4v-30.4H279.3z"/>
		<path class="st3" d="M274.7,181.3c0,20,2.3,30.4,2.3,30.4v-30.4H274.7z"/>
		<path class="st3" d="M274.6,180.9c0-1.3,1.1-2.4,2.4-2.4s2.4,1.1,2.4,2.4c0,1.3-1.1,2.4-2.4,2.4S274.6,182.2,274.6,180.9"/>
		<path class="st3" d="M268,159.3c0.1,0,0.2,0,0.2-0.1c0.5-0.1,0.8-0.5,0.7-1c0,0-1.4-5.9-7.7-4.8c-0.5,0.1-0.8,0.5-0.7,1
			s0.5,0.8,1,0.7c4.5-0.8,5.6,3.1,5.7,3.5C267.2,159,267.6,159.3,268,159.3"/>
	</g>
	<path class="st8" d="M276.1,218.8c-0.4,0-0.7,0-1-0.1l0.1-0.8c0.3,0.1,0.6,0.1,0.9,0.1h3.4v0.8H276.1L276.1,218.8z M298.4,218.8
		h-1.8v-0.9h1.8c0.5,0,1,0,1.5-0.1l0.2,0.8C299.5,218.7,299,218.8,298.4,218.8 M293.2,218.9h-3.4V218h3.4V218.9z M286.3,218.9h-3.4
		V218h3.4V218.9z M271.6,217.7c-1-0.6-1.9-1.4-2.7-2.3l0.7-0.5c0.7,0.9,1.5,1.6,2.5,2.1L271.6,217.7z M303.4,217.4l-0.5-0.8
		c0.9-0.5,1.7-1.3,2.3-2.2l0.7,0.5C305.3,215.9,304.4,216.7,303.4,217.4 M267.3,212.2c-0.3-0.8-0.4-1.6-0.4-2.5v-0.9h0.9v0.9
		c0,0.8,0.1,1.6,0.3,2.3L267.3,212.2z M307.3,211.6l-0.9-0.2c0.1-0.5,0.2-1.1,0.2-1.7v-1.6h0.9v1.6
		C307.5,210.3,307.4,211,307.3,211.6 M267.8,205.3h-0.9v-3.4h0.9V205.3z M307.5,204.7h-0.9v-3.4h0.9V204.7z M267.8,198.5h-0.9v-3.4
		h0.9V198.5z M307.5,197.9h-0.9v-3.4h0.9V197.9z M267.8,191.7h-0.9v-3.4h0.9V191.7z M307.5,191.1h-0.9v-3.4h0.9V191.1z M305.7,186.1
		h-3.4v-0.9h3.4V186.1z M298.9,186.1h-3.4v-0.9h3.4V186.1z M292,186.1h-3.4v-0.9h3.4V186.1z M285.2,186.1h-3.4v-0.9h3.4V186.1z
		 M278.4,186.1H275v-0.9h3.4V186.1z M271.6,186.1h-3.4v-0.9h3.4V186.1z"/>
	<rect x="269.6" y="186.1" width="32.7" height="27.2"/>
</g>
<path class="st1" d="M338.4,351c-3.2,7,30.8-20.8,32.2-30.6c-0.6,0.8,0.8-2.8,0.3-1c1.6-3.2,3.3-7.4,4.1-10.1
	c9.9-14,2.2-59.9-19-38.6l-0.1-0.2c-0.2,1.4-1.4,3-0.6,4.1c-0.8,6,5.7,10.8,11.6,10.7c-0.8-0.2,1.4-0.1,2-0.3
	c-0.1,0.1-0.4,0.1-0.6,0.2c1.9-0.1,3.3-0.8,4.9-1.4c-0.2,0.1-0.3,0.1-0.4,0.2c1.4-0.9,3.4-1.8,4.1-2.8c1.1-0.5,2.9-3.2,3.3-4.7
	c3.4-7.5,5.9-17.7,6-25.9c0.4-1.8,0.1-4.3,0.4-6.2c-0.6,1-0.2-3.4-0.1-1.6c-0.1-3.1-0.1-5.7-0.3-9c-0.2,0.2-0.4-0.9-0.4-1.8l0.4,0.3
	c-1.3-11.9-2.7-26.1-5.6-36.8c-0.1-0.5,0.3-0.4,0-0.9l0.3,0.5c-1.5-8.7-2.5-17.5-4.1-25.8c0.2,0.7,0.4,1.2,0.7,1.6
	c-0.2-1.5-0.8-4.6-0.6-4.6c-0.1-0.7-0.3-2.3-0.2-1c-0.4-1-0.6-1-0.4,0c-0.6-1.7,0.6-1.5-0.4-3.3c0.2,0.4,0.1,1.1-0.1,0.9
	c0.2,1.2-0.1,2.4,0.3,4l0.1-0.5c0.1,0.8,0.5,1.5,0.3,2.2c-0.3-0.6-0.3,0.3-0.2,0.5l-0.3-0.3c0.5,0.3,0.4,2,0.5,2.3l-0.1-0.1
	c-0.3,2.2,0.7,6.7,0.9,9.5c-0.3-0.2-0.4,0.8-0.7-0.4c0.4,0.6,0.2,1.2,0,1.6c0.2,0.3,0.3-0.3,0.3-1c0.2-0.6,0.3,1.7,0.5,0.8
	c0.2,1.3,0.3,2.8,0.6,4.1c-0.5-1.6,0.2,3.4,0.8,2.4c0.5,1-0.3,0.5-0.2,1.9c-0.5-1.2-1.1-2.5-1-3.9c-0.9,0.1,1.4,3.8,0.7,4.8
	c-0.1-0.1-0.1-0.3-0.2-0.5c0.4,1.6,0.5,2.5-0.1,0.3c-0.7,0.9,0.8,1.8,0.1,2.1c0.1,0.7,0.5,1.4,0.4-0.1c0.4,0.4,0.2,0.6,0.4,1.7
	c0.2,0.3-0.1-0.4,0.1-0.5c0.4-0.2,0.6,2,0.2,2c-0.1-0.2-0.2-0.9-0.1-0.8c-0.4-1.1-0.3,0.5-0.6-0.2c0,1.1,0.4,0.7,0.5,1.6
	c-0.2-0.9,0.1-0.3,0.2-0.5c0.8,1.3-0.2,0.9,0.1,2.3c0.3-0.3,0.8,1.8,1,0.7c0.1,0.3,0.3,0.8,0.3,1.1c-0.3-0.4-0.1,0.6-0.4,0l0.1,0.5
	l-0.4-0.7c-0.1,1.1-0.4,1.7,0.2,2.4c-0.1-0.3-0.2,0.2-0.1,0.6c0.4-1.6,0.9,3.7,0.1,1c0,0.8,1,1.5,0.8,2.4l-0.3-0.7
	c0.2,1-0.4,0.3-0.1,1.3c0.2,0.1,0.2,0.6,0,0.3c0.3,0.7,0.5,1.6,0.5,2.4c0.1-3.1,0.4,2.5,0.8,3.8c-0.1-0.3-0.3-0.2-0.3,0.2
	c0.2-0.6,0.5,0.8,0.7,0.6c0,1.1-0.4-0.1-0.6,0.2c0.4,0.5,0,1.2,0.4,1.5c0-0.8,0.2,0.1,0.4,0.2c0.1,0.9-0.2-0.2-0.2,0.5
	c0.1,0.3,0.4,0.8,0.4,0.2c0,0.6,0.4,1.2,0.3,1.8c-0.7-1.4,0.1,0.1,0.5,1c0-0.5,0.4-0.1,0.6,0.5c0.1,1.4-0.2-0.5-0.4,0l0.1,0.5
	c-0.1,0.7-1.4-2.3-0.7-0.2c-0.9,0.4,0.4,1.1,0.4,2.8c-0.2-0.5-0.3,0.2-0.4,0c0,0.5,0.2,0.1,0.2,0.8l-0.1-0.1c0.2,3.7,1.4,6.3,1,10
	c0-1,0.3,3.3,0.1,3.4c-0.1,0.9,0.9,2.3,0.1,2.8c0.1,0.3,0.1,0.5,0.2,0.2c-0.2,0.7-0.1,2.4-0.1,3.6c0.2-0.9,0.5-0.5,0.4,0.2
	c-0.1,0-0.2,0.6-0.3,0c-0.5,3-0.2,6.9-0.8,10.1c0.9,0.7-0.8,3.3-0.6,4.8v-0.1c-0.6,1.3-0.1,2.8-0.6,3.9c0-0.2-0.1-0.2-0.1-0.5
	c-0.2,1,0.5,1.2-0.2,1.8c0.3-2.1-0.1,1.7-0.6,1.7c0,0.4-0.1,0.8-0.1,1.1c0.6-1.5,0.5-0.8,0.2,0v-0.3c0,0.2-0.3,1.1,0,0.7
	c-1,1.8-1.7,3.9-2.2,6.3c0-0.8-0.5,0.1-0.5,0.6c0.8-1.3-2.2,4.2-3.3,5.1c-0.1-0.3-0.6,0.7-1.1,0.8l0.4,0.1c-0.6,0.6-2.8,2.2-1.6,1
	c-1.6,0.4-3.1,2.3-4.5,1.8c-0.3,0.4-1.5,0.2-0.6,0c-2,0.5-4.4-0.4-6.1-0.8c-0.2-0.4-0.8-0.1-1.2-0.4c0.8-0.2-0.8-0.7-0.8-1
	c-0.3,0.2-2.5-1.7-1.5-1.3c-0.3-0.6-0.8-1.1-1.1-1.7c0.3,0.1-0.6-0.8-0.5-1.1c-0.5-0.7,1.2,2.4,0.7,1.7c0.2,0-0.8-1.4-0.2-1
	c-1.2-1.4-1.1-4.1-0.8-5.7c-0.2,1.2,0.2-0.8,0.3-0.6c0-0.1,1-1,0.5-0.8c1-0.7,2-2.1,3.3-2.3c-1.4,0.9,1.9-0.8,2.5-0.8
	c-0.1,0.1-0.1,0.1-0.3,0.2c0.8-0.1,1.6-0.2,2-0.3c-1,0.2-0.3-0.3,0.6-0.1c2,0.4,3,1.7,5.6,2.6c-0.3-0.3,0.2,0.5-0.3,0.2
	c2.1,1.4,3.5,3.1,3.4,3.9c-0.4-0.7-0.2,0.3-0.5-0.1c0.4,0.6,1,2.1,1.3,3.1c1.1,0.5,1.5,4.5,1.6,5.7c0,0.6,0.8,4,0.4,3.6
	c0,1.1,0.5,0.2,0.3,1.5l-0.2-0.3c0.2,0.8-0.1,1.6,0.1,2.5c0,0-0.1-0.2-0.1-0.3c-0.1,0.4,0.2,3.4-0.1,2.1c-0.2,0.7,0.3,1.6-0.2,2.2
	c-0.5,3.6-2.6,14.2-3.8,14.6c-0.1,1.8-2.1,4.8-2.7,6.8v-0.1c-0.8,1.2-1.4,4.4-1.8,4.1c-1.2,2.7-3.6,7-4.7,8.4
	c-2.4,3.5-4,5.9-6.3,8.6l0.1-0.3C351.4,341.9,345.5,346.5,338.4,351"/>
</svg>
