<?xml version="1.0" encoding="utf-8"?>
<!-- Generator: Adobe Illustrator 25.2.1, SVG Export Plug-In . SVG Version: 6.00 Build 0)  -->
<svg version="1.1" id="Layer_1" xmlns="http://www.w3.org/2000/svg" xmlns:xlink="http://www.w3.org/1999/xlink" x="0px" y="0px"
	 viewBox="0 0 600 600" style="enable-background:new 0 0 600 600;" xml:space="preserve">
<style type="text/css">
	.st0{fill:none;}
	.st1{fill:#FFFFFF;}
	.st2{fill:#00175A;}
	.st3{fill:#66A9E2;}
	.st4{fill:#006FCF;}
	.st5{fill:#FF6D6A;}
	.st6{fill:url(#SVGID_2_);}
	.st7{fill:#CCD1DE;}
	.st8{fill:none;stroke:#00175A;stroke-width:2.0811;stroke-miterlimit:10;}
	.st9{fill:#FDB92D;}
	.st10{fill:none;stroke:#00175A;stroke-width:1.5615;stroke-linecap:round;stroke-linejoin:round;stroke-miterlimit:10;}
</style>
<pattern  y="600" width="243" height="288" patternUnits="userSpaceOnUse" id="SVGID_1_" viewBox="0 -288 243 288" style="overflow:visible;">
	<g>
		<rect y="-288" class="st0" width="243" height="288"/>
		<g>
			<rect y="-288" class="st0" width="243" height="288"/>
			<g>
				<rect y="-288" class="st0" width="243" height="288"/>
				<g>
					<rect y="-288" class="st0" width="243" height="288"/>
					<path class="st1" d="M121.5-243c22.9,0,42.2-9.2,61-18c18.6-8.8,37.9-18,60.5-18v-1c-22.9,0-42.2,9.2-61,18
						c-18.6,8.8-37.9,18-60.5,18s-41.9-9.1-60.5-18c-18.8-8.8-38.1-18-61-18v1c22.7,0,41.9,9.1,60.5,18
						C79.3-252.2,98.6-243,121.5-243"/>
					<path class="st1" d="M121.5-234c22.9,0,42.2-9.2,61-18c18.6-8.8,37.9-18,60.5-18v-1c-22.9,0-42.2,9.2-61,18
						c-18.6,8.8-37.9,18-60.5,18s-41.9-9.1-60.5-18c-18.8-8.8-38.1-18-61-18v1c22.7,0,41.9,9.1,60.5,18
						C79.3-243.2,98.6-234,121.5-234"/>
					<path class="st1" d="M121.5-225c22.9,0,42.2-9.2,61-18c18.6-8.8,37.9-18,60.5-18v-1c-22.9,0-42.2,9.2-61,18
						c-18.6,8.8-37.9,18-60.5,18s-41.9-9.1-60.5-18c-18.8-8.8-38.1-18-61-18v1c22.7,0,41.9,9.1,60.5,18
						C79.3-234.2,98.6-225,121.5-225"/>
					<path class="st1" d="M121.5-216c22.9,0,42.2-9.2,61-18c18.6-8.8,37.9-18,60.5-18v-1c-22.9,0-42.2,9.2-61,18
						c-18.6,8.8-37.9,18-60.5,18s-41.9-9.1-60.5-18c-18.8-8.8-38.1-18-61-18v1c22.7,0,41.9,9.1,60.5,18
						C79.3-225.2,98.6-216,121.5-216"/>
					<path class="st1" d="M121.5-207c22.9,0,42.2-9.2,61-18c18.6-8.8,37.9-18,60.5-18v-1c-22.9,0-42.2,9.2-61,18
						c-18.6,8.8-37.9,18-60.5,18s-41.9-9.1-60.5-18c-18.8-8.8-38.1-18-61-18v1c22.7,0,41.9,9.1,60.5,18
						C79.3-216.2,98.6-207,121.5-207"/>
					<path class="st1" d="M121.5-198c22.9,0,42.2-9.2,61-18c18.6-8.8,37.9-18,60.5-18v-1c-22.9,0-42.2,9.2-61,18
						c-18.6,8.8-37.9,18-60.5,18s-41.9-9.1-60.5-18c-18.8-8.8-38.1-18-61-18v1c22.7,0,41.9,9.1,60.5,18
						C79.3-207.2,98.6-198,121.5-198"/>
					<path class="st1" d="M121.5-189c22.9,0,42.2-9.2,61-18c18.6-8.8,37.9-18,60.5-18v-1c-22.9,0-42.2,9.2-61,18
						c-18.6,8.8-37.9,18-60.5,18s-41.9-9.1-60.5-18c-18.8-8.8-38.1-18-61-18v1c22.7,0,41.9,9.1,60.5,18
						C79.3-198.2,98.6-189,121.5-189"/>
					<path class="st1" d="M121.5-180c22.9,0,42.2-9.2,61-18c18.6-8.8,37.9-18,60.5-18v-1c-22.9,0-42.2,9.2-61,18
						c-18.6,8.8-37.9,18-60.5,18s-41.9-9.1-60.5-18c-18.8-8.8-38.1-18-61-18v1c22.7,0,41.9,9.1,60.5,18
						C79.3-189.2,98.6-180,121.5-180"/>
					<path class="st1" d="M121.5-171c22.9,0,42.2-9.2,61-18c18.6-8.8,37.9-18,60.5-18v-1c-22.9,0-42.2,9.2-61,18
						c-18.6,8.8-37.9,18-60.5,18s-41.9-9.1-60.5-18c-18.8-8.8-38.1-18-61-18v1c22.7,0,41.9,9.1,60.5,18
						C79.3-180.2,98.6-171,121.5-171"/>
					<path class="st1" d="M121.5-162c22.9,0,42.2-9.2,61-18c18.6-8.8,37.9-18,60.5-18v-1c-22.9,0-42.2,9.2-61,18
						c-18.6,8.8-37.9,18-60.5,18s-41.9-9.1-60.5-18c-18.8-8.8-38.1-18-61-18v1c22.7,0,41.9,9.1,60.5,18
						C79.3-171.2,98.6-162,121.5-162"/>
					<path class="st1" d="M121.5-153c22.9,0,42.2-9.2,61-18c18.6-8.8,37.9-18,60.5-18v-1c-22.9,0-42.2,9.2-61,18
						c-18.6,8.8-37.9,18-60.5,18s-41.9-9.1-60.5-18c-18.7-8.9-38.1-18-61-18v1c22.7,0,41.9,9.1,60.5,18
						C79.3-162.2,98.6-153,121.5-153"/>
					<path class="st1" d="M121.5-144c22.9,0,42.2-9.2,61-18c18.6-8.8,37.9-18,60.5-18v-1c-22.9,0-42.2,9.2-61,18
						c-18.6,8.8-37.9,18-60.5,18s-41.9-9.1-60.5-18c-18.7-8.9-38.1-18-61-18v1c22.7,0,41.9,9.1,60.5,18
						C79.3-153.2,98.6-144,121.5-144"/>
					<path class="st1" d="M121.5-135c22.9,0,42.2-9.2,61-18c18.6-8.8,37.9-18,60.5-18v-1c-22.9,0-42.2,9.2-61,18
						c-18.6,8.8-37.9,18-60.5,18s-41.9-9.1-60.5-18c-18.7-8.9-38.1-18-61-18v1c22.7,0,41.9,9.1,60.5,18
						C79.3-144.2,98.6-135,121.5-135"/>
					<path class="st1" d="M121.5-126c22.9,0,42.2-9.2,61-18c18.6-8.8,37.9-18,60.5-18v-1c-22.9,0-42.2,9.2-61,18
						c-18.6,8.8-37.9,18-60.5,18s-41.9-9.1-60.5-18c-18.7-8.9-38.1-18-61-18v1c22.7,0,41.9,9.1,60.5,18
						C79.3-135.2,98.6-126,121.5-126"/>
					<path class="st1" d="M121.5-117c22.9,0,42.2-9.2,61-18c18.6-8.8,37.9-18,60.5-18v-1c-22.9,0-42.2,9.2-61,18
						c-18.6,8.8-37.9,18-60.5,18s-41.9-9.1-60.5-18c-18.7-8.9-38.1-18-61-18v1c22.7,0,41.9,9.1,60.5,18
						C79.3-126.2,98.6-117,121.5-117"/>
					<path class="st1" d="M121.5-108c22.9,0,42.2-9.2,61-18c18.6-8.8,37.9-18,60.5-18v-1c-22.9,0-42.2,9.2-61,18
						c-18.6,8.8-37.9,18-60.5,18s-41.9-9.1-60.5-18c-18.7-8.9-38.1-18-61-18v1c22.7,0,41.9,9.1,60.5,18
						C79.3-117.2,98.6-108,121.5-108"/>
					<path class="st1" d="M121.5-99c22.9,0,42.2-9.2,61-18c18.6-8.8,37.9-18,60.5-18v-1c-22.9,0-42.2,9.2-61,18
						c-18.6,8.8-37.9,18-60.5,18s-41.9-9.1-60.5-18c-18.7-8.9-38.1-18-61-18v1c22.7,0,41.9,9.1,60.5,18C79.3-108.2,98.6-99,121.5-99
						"/>
					<path class="st1" d="M121.5-90c22.9,0,42.2-9.2,61-18c18.6-8.8,37.9-18,60.5-18v-1c-22.9,0-42.2,9.2-61,18
						c-18.6,8.8-37.9,18-60.5,18s-41.9-9.1-60.5-18c-18.7-8.9-38.1-18-61-18v1c22.7,0,41.9,9.1,60.5,18C79.3-99.2,98.6-90,121.5-90"
						/>
					<path class="st1" d="M121.5-81c22.9,0,42.2-9.2,61-18c18.6-8.8,37.9-18,60.5-18v-1c-22.9,0-42.2,9.2-61,18
						c-18.6,8.8-37.9,18-60.5,18S79.6-91.1,61-100c-18.7-8.9-38.1-18-61-18v1c22.7,0,41.9,9.1,60.5,18C79.3-90.2,98.6-81,121.5-81"
						/>
					<path class="st1" d="M121.5-72c22.9,0,42.2-9.2,61-18c18.6-8.8,37.9-18,60.5-18v-1c-22.9,0-42.2,9.2-61,18
						c-18.6,8.8-37.9,18-60.5,18S79.6-82.1,61-91c-18.7-8.9-38.1-18-61-18v1c22.7,0,41.9,9.1,60.5,18C79.3-81.2,98.6-72,121.5-72"/>
					<path class="st1" d="M121.5-63c22.9,0,42.2-9.2,61-18c18.6-8.8,37.9-18,60.5-18v-1c-22.9,0-42.2,9.2-61,18
						c-18.6,8.8-37.9,18-60.5,18S79.6-73.1,61-82c-18.7-8.9-38.1-18-61-18v1c22.7,0,41.9,9.1,60.5,18C79.3-72.2,98.6-63,121.5-63"/>
					<path class="st1" d="M121.5-54c22.9,0,42.2-9.2,61-18c18.6-8.8,37.9-18,60.5-18v-1c-22.9,0-42.2,9.2-61,18
						c-18.6,8.8-37.9,18-60.5,18S79.6-64.1,61-73C42.3-81.9,22.9-91,0-91v1c22.7,0,41.9,9.1,60.5,18C79.3-63.2,98.6-54,121.5-54"/>
					<path class="st1" d="M121.5-45c22.9,0,42.2-9.2,61-18c18.6-8.8,37.9-18,60.5-18v-1c-22.9,0-42.2,9.2-61,18
						c-18.6,8.8-37.9,18-60.5,18S79.6-55.1,61-64C42.3-72.9,22.9-82,0-82v1c22.7,0,41.9,9.1,60.5,18C79.3-54.2,98.6-45,121.5-45"/>
					<path class="st1" d="M121.5-36c22.9,0,42.2-9.2,61-18c18.6-8.8,37.9-18,60.5-18v-1c-22.9,0-42.2,9.2-61,18
						c-18.6,8.8-37.9,18-60.5,18S79.6-46.1,61-55C42.3-63.9,22.9-73,0-73v1c22.7,0,41.9,9.1,60.5,18C79.3-45.2,98.6-36,121.5-36"/>
					<path class="st1" d="M121.5-27c22.9,0,42.2-9.2,61-18c18.6-8.8,37.9-18,60.5-18v-1c-22.9,0-42.2,9.2-61,18
						c-18.6,8.8-37.9,18-60.5,18S79.6-37.1,61-46C42.3-54.9,22.9-64,0-64v1c22.7,0,41.9,9.1,60.5,18C79.3-36.2,98.6-27,121.5-27"/>
					<path class="st1" d="M121.5-18c22.9,0,42.2-9.2,61-18c18.6-8.8,37.9-18,60.5-18v-1c-22.9,0-42.2,9.2-61,18
						c-18.6,8.8-37.9,18-60.5,18S79.6-28.1,61-37C42.3-45.9,22.9-55,0-55v1c22.7,0,41.9,9.1,60.5,18C79.3-27.2,98.6-18,121.5-18"/>
					<path class="st1" d="M121.5-9c22.9,0,42.2-9.2,61-18c18.6-8.8,37.9-18,60.5-18v-1c-22.9,0-42.2,9.2-61,18
						c-18.6,8.8-37.9,18-60.5,18S79.6-19.1,61-28C42.3-36.9,22.9-46,0-46v1c22.7,0,41.9,9.1,60.5,18C79.3-18.2,98.6-9,121.5-9"/>
					<path class="st1" d="M243-36v-1c-22.9,0-42.2,9.2-61,18c-18.6,8.8-37.9,18-60.5,18S79.6-10.1,61-19C42.3-27.9,22.9-37,0-37v1
						c22.7,0,41.9,9.1,60.5,18c18.7,8.9,38.1,18,61,18s42.2-9.2,61-18C201.1-26.9,220.3-36,243-36"/>
					<path class="st1" d="M182.5-9c18.6-8.8,37.9-18,60.5-18v-1c-22.9,0-42.2,9.2-61,18c-7.3,3.5-14.7,7-22.4,10h2.7
						C169.2-2.8,175.9-5.9,182.5-9"/>
					<path class="st1" d="M61-10C42.3-18.9,22.9-28,0-28v1c22.7,0,41.9,9.1,60.5,18c6.6,3.1,13.2,6.3,20.1,9h2.7
						C75.7-3,68.3-6.5,61-10"/>
					<path class="st1" d="M182.5,0c18.6-8.8,37.9-18,60.5-18v-1c-22.9,0-42.2,9.2-61,18c-0.7,0.3-1.3,0.6-2,1h2.3
						C182.4,0,182.4,0,182.5,0"/>
					<path class="st1" d="M61-1C42.3-9.9,22.9-19,0-19v1c22.7,0,41.9,9.1,60.5,18h0.1H63C62.3-0.3,61.6-0.6,61-1"/>
					<path class="st1" d="M243-9v-1c-15.8,0-29.9,4.4-43.3,10h2.6C215-5.1,228.3-9,243-9"/>
					<path class="st1" d="M0-10v1c14.7,0,28,3.9,40.7,9h2.6C29.9-5.6,15.8-10,0-10"/>
					<path class="st1" d="M243-1c-4.4,0-8.8,0.3-13.2,1H243V-1z"/>
					<path class="st1" d="M0-1v1h13.2C8.8-0.7,4.4-1,0-1"/>
					<path class="st1" d="M162.1-287.9h-2.7c-14,5.4-25.8,7.9-37.9,7.9s-23.9-2.4-37.9-7.9h-2.7c15.2,6.2,27.7,8.9,40.6,8.9
						S146.9-281.7,162.1-287.9"/>
					<path class="st1" d="M182.1-287.9h-2.3c-18,8.5-36.6,16.9-58.3,16.9s-40.3-8.4-58.3-16.9h-2.3c18.6,8.8,37.9,17.9,60.6,17.9
						S163.5-279.1,182.1-287.9"/>
					<path class="st1" d="M121.5-261c22.9,0,42.2-9.2,61-18c6.4-3,12.9-6.1,19.5-8.8h-2.6c-5.9,2.4-11.7,5.2-17.4,7.8
						c-18.6,8.8-37.9,18-60.5,18s-41.9-9.1-60.5-18c-5.7-2.7-11.5-5.4-17.4-7.9H41c6.6,2.7,13.2,5.8,19.5,8.9
						C79.3-270.2,98.6-261,121.5-261"/>
					<path class="st1" d="M121.5-252c22.9,0,42.2-9.2,61-18c17.4-8.2,35.3-16.7,56-17.8h-9.4c-17,2.6-32.2,9.8-47.1,16.8
						c-18.6,8.8-37.9,18-60.5,18s-41.9-9.1-60.5-18c-14.9-7-30.1-14.2-47.1-16.9H4.5c20.7,1.1,38.7,9.6,56,17.8
						C79.3-261.2,98.6-252,121.5-252"/>
					<path class="st1" d="M243-288c-1.5,0-3,0-4.5,0.1h4.5V-288z"/>
					<path class="st1" d="M0-288v0.1h4.5C3-288,1.5-288,0-288"/>
				</g>
			</g>
		</g>
	</g>
</pattern>
<g id="contruction">
	<g>
		<path class="st2" d="M342.2,537.6l-20.2,0.1v3.5v12.4h16.1c6.7,2.6,13.9,3.9,21.2,3.9h0.9c2-1.9,4.5-3.4,7-4.8
			c1.7-1,3.4-1.9,5.1-2.7c-3.5-0.9-8-2-12.4-3.4C352.5,544.2,345.1,541.2,342.2,537.6L342.2,537.6z"/>
		<path class="st2" d="M253.9,546.6c-4.5,1.4-8.9,2.6-12.4,3.3c1.7,0.9,3.4,1.8,5.1,2.7c2.4,1.4,4.9,2.9,7,4.8h0.9
			c7.2,0,14.4-1.3,21.2-3.9h16.1v-12.4v-3.5h-20.2l0,0C268.6,541.2,261.3,544.2,253.9,546.6"/>
		<path class="st2" d="M275.7,552.2c-8.5,3-16.8,3.8-23.7,3.9c0.5,0.4,1.1,0.8,1.6,1.3h0.9c7.2,0,14.4-1.3,21.2-3.9l0.6,3.9h15.5
			v-3.9v-1.3H275.7L275.7,552.2"/>
		<path class="st2" d="M233.9,551.6c-4.3,1.1-3.3,5.8,1.2,5.9h18.5c-2-1.9-4.5-3.4-7-4.8c-1.7-1-3.4-1.9-5.1-2.7
			C237,551,233.9,551.6,233.9,551.6"/>
		<path class="st2" d="M261.2,329c-1-16.2-2.3-32.5-0.4-48.6h92c1.9,15,0.9,30.3-0.3,48.6l-5.2,210.4h-28.5L306.9,320L295,539.4
			h-28.5L261.2,329"/>
		<rect x="260.9" y="272.4" class="st2" width="92" height="9.5"/>
		<rect x="278.9" y="272.4" class="st2" width="3.9" height="10.6"/>
		<rect x="331.3" y="272.4" class="st2" width="3.9" height="10.6"/>
		<path class="st3" d="M357.8,292.2l-7.4,14.6l-18.7-14.6c7.7-12.2,17.1-7.8,17.1-7.8L357.8,292.2z"/>
		<path class="st3" d="M256.2,292.2l7.4,14.6l18.7-14.6c-7.7-12.2-17.1-7.8-17.1-7.8L256.2,292.2z"/>
		<path class="st3" d="M282.4,126.2c4.6,0,11.3-3.4,11.3-7.6V96.8h26v21.8c0,4.2,6.7,7.6,11.3,7.6
			C331,126.2,282.4,126.2,282.4,126.2z"/>
		<path class="st4" d="M215.5,217.8c-2.1,10.7,2,20.1,8.2,29.8l25.4,40.3c1.7,2.8,5.7,3.1,7.9,0.6l8.4-9.8c1.2-1.5,1.5-3.5,0.7-5.3
			l0.3-1h82.2l-0.8,1c-0.8,1.8-0.5,3.9,0.8,5.4l8.3,9.6c2.2,2.6,6.3,2.3,8.1-0.6l25.3-40.2c5.9-9,10.3-19.1,8.2-29.8l-21.1-62.1
			c-1.9-9.6-6.4-18.3-19.9-22.1l-34.9-10.8c0,0-2.7-3.2-2.7-5.3l-13.3,8.3l-13.3-8.3c0,2-2.8,5.3-2.8,5.3l-34,10.8
			c-13.5,3.8-18,12.5-19.9,22.1L215.5,217.8 M353.6,261.3l1.8-52.4l1.2-18l11.1,21.7c2.7,10-0.5,20-5.2,29.1L353.6,261.3z
			 M251.6,241.7c-4.8-9.7-7.9-19.1-5.2-29.1l11.1-21.7l1.3,19.4l1.8,51L251.6,241.7"/>
		<polygon class="st5" points="293.9,252.6 306.6,269.6 318.8,252.6 308.5,136 311.8,131.2 306.7,125.8 301.4,131.2 304.7,136 		"/>
		<pattern  id="SVGID_2_" xlink:href="#SVGID_1_" patternTransform="matrix(0.5505 0 0 0.5505 -9637.7852 3621.9368)">
		</pattern>
		<polygon class="st6" points="293.9,252.6 306.6,269.6 318.8,252.6 308.5,136 311.8,131.2 306.7,125.8 301.4,131.2 304.7,136 		"/>
		<polygon class="st7" points="315.6,140.5 329.8,124 319.9,117.4 306.7,125.8 		"/>
		<polygon class="st7" points="297.7,140.5 283.5,124 293.4,117.4 306.6,125.8 		"/>
		<path class="st1" d="M287.9,95.5l-0.1-29.9c0-6.3,5.1-11.3,11.3-11.3h15c6.3,0,11.3,5.1,11.3,11.3v29.9H287.9L287.9,95.5z"/>
		<path class="st1" d="M315,108.2c4.8,0,8.7-3.9,8.7-8.7v-25c0-4.8-3.9-8.7-8.7-8.7h-16.7c-4.8,0-8.7,3.9-8.7,8.7v25
			c0,4.8,3.9,8.7,8.7,8.7H315"/>
		<path class="st3" d="M289.9,97.5c1.5,0,2.7-1.2,2.7-2.7V84.5c0-1.5-1.2-2.7-2.7-2.7h-2c-1.4,0-2.6,1.2-2.6,2.6v11.1
			c0,1.1,0.9,2,2,2H289.9"/>
		<path class="st3" d="M325.2,97.5c1.5,0,2.7-1.2,2.7-2.7V84.5c0-1.5-1.2-2.7-2.7-2.7h-2c-1.4,0-2.6,1.2-2.6,2.6v11.1
			c0,1.1,0.9,2,2,2H325.2"/>
		<path class="st2" d="M317.9,81.8c4.1,0,7.5,3.3,7.6,7.5v14.9c0,10.4-8.4,18.8-18.8,18.8s-18.8-8.4-18.8-18.8V89.3
			c0-4.1,3.4-7.5,7.5-7.5H317.9"/>
		<path class="st3" d="M291.2,76.9c-0.7,0-1.3,0.6-1.3,1.3v20.2c0,6.3,5.1,11.4,11.4,11.4H312c6.3,0,11.4-5.1,11.4-11.4V78.2
			c0-0.7-0.6-1.3-1.3-1.3L291.2,76.9"/>
		<path class="st8" d="M298.9,109.8c0,0-0.1-7.5,7.7-7.5c7.8,0,7.2,7.5,7.2,7.5"/>
		<path class="st9" d="M283.4,77l0.1-8c0.1-13.2,8.5-23.8,23-23.7s22.8,11,22.7,24.1l-0.1,8L283.4,77z"/>
		<polygon class="st9" points="333.8,78 278.8,78 284,70.2 328.6,70.2 		"/>
		<path class="st9" d="M309.8,72V46c0-1.9-1.6-3.5-3.5-3.5s-3.5,1.6-3.5,3.5v26H309.8z"/>
		<polygon class="st7" points="347.9,273.3 339.2,283.6 356.8,299.6 364.6,289.1 		"/>
		<polygon class="st7" points="266.3,273.3 275,283.6 257.3,299.6 249.5,289.1 		"/>
		<rect x="297.3" y="272.5" class="st2" width="18.6" height="10"/>
		<path class="st2" d="M338.1,552.2H322v1.3v3.9h15.5l0.6-3.9c6.7,2.6,13.9,3.9,21.2,3.9h0.9h18.5c4.4,0,5.4-4.7,1.2-5.8
			c0,0-3.1-0.6-7.6-1.6c-1.7,0.9-3.4,1.8-5.1,2.7c-1.8,1-3.7,2.1-5.4,3.4C354.8,556,346.5,555.2,338.1,552.2L338.1,552.2
			L338.1,552.2z"/>
		<path class="st7" d="M285.9,211c0-3.7-3-6.7-6.7-6.6h-1.4l0.1,38.2h1.4c3.6,0,6.6-3,6.6-6.7v-6.6c0.2,0.1,0.4,0.1,0.7,0.1
			c3.8,0,6.7-3.5,5.8-7.4c-0.5-2.1-2.2-3.8-4.3-4.3c-1-0.2-1.6-0.2-2.2,0V211 M284.1,223.5c0-1.8,1.4-3.2,3.1-3.1
			c1.7,0,3.1,1.4,3.1,3.1c0,1.7-1.4,3.1-3.1,3.1S284.1,225.2,284.1,223.5"/>
		<path class="st9" d="M201.3,249.5c0,1.1,0.9,2,2,2l74.9-0.2c1.1,0,2-0.9,2-2l-0.2-51.5c0-1.1-0.9-2-2-2l-74.9,0.2
			c-1.1,0-2,0.9-2,2L201.3,249.5"/>
		<path class="st4" d="M215.5,217.8c-2.1,10.7,2,20.1,8.3,29.8l25.8,41.5l16.7-15.7l-17.7-38c-4.2-8.9-4-19.3,0.5-28.1l8.4-16.4
			l-20.9-35.2L215.5,217.8"/>
		<path class="st2" d="M283.1,171.2c-0.5,0-0.9-0.4-0.9-0.9v-12.1c0-0.5,0.4-0.9,0.9-0.9h1.2c0.5,0,0.9,0.4,0.9,0.9v12.1
			c0,0.5-0.4,0.9-0.9,0.9H283.1"/>
		<rect x="266.2" y="166.2" class="st7" width="25.4" height="5"/>
		<line class="st10" x1="282.7" y1="175.4" x2="282.7" y2="163.6"/>
	</g>
</g>
</svg>
