<?xml version="1.0" encoding="utf-8"?>
<!-- Generator: Adobe Illustrator 25.2.1, SVG Export Plug-In . SVG Version: 6.00 Build 0)  -->
<svg version="1.1" xmlns="http://www.w3.org/2000/svg" xmlns:xlink="http://www.w3.org/1999/xlink" x="0px" y="0px"
	 viewBox="0 0 600 600" style="enable-background:new 0 0 600 600;" xml:space="preserve">
<style type="text/css">
	.st0{fill:#00175A;}
	.st1{fill:#CCD1DE;}
	.st2{fill:#FFFFFF;}
	.st3{fill:#006FCF;}
	.st4{fill:#E86360;}
	.st5{fill:#D0D5E3;}
	.st6{fill:#20346F;}
	.st7{display:none;}
	.st8{display:inline;fill:#20346F;}
</style>
<g id="Layer_1">
	<path class="st0" d="M392.3,553.5c0,0-1.3-0.5-5.5-1.5c-3.4-0.8-7.6-1.9-11.8-3.2c-7-2.2-17.3-6.8-20.1-10.1
		c0,0,9.4-87.6,6.1-116.9c4.2-26.5,5.3-102.3,5.3-102.3c1-15.4,0.6-30.8-1.3-46.1h-30h-21.2h-30.1c-1.9,15.3-2.3,30.7-1.3,46.1
		c0,0,1.1,75.8,5.3,102.3c-3.2,29.3,6.2,116.9,6.2,116.9l0,0c-2.8,3.4-13,7.9-20.1,10.1c-4.2,1.3-8.4,2.4-11.8,3.2
		c-4.2,1-5.5,1.5-5.5,1.5c-4,1-3.1,3.9,1.2,3.9h9.3h0.8c6.9,0,20.3-1.3,26.7-3.7l10.7-0.6c2.4,0.3,4.6-1.6,4.6-4.1l-1.6-7.1v-3.3
		c-0.6-31.3,12.5-98.7,2.7-125.1c7.8-34,13.3-102.6,13.3-102.6s0.1-0.2,0.3-0.6c0.2,0.4,0.4,0.6,0.4,0.6s5.5,68.6,13.3,102.6
		c-9.9,26.4,3.3,93.8,2.7,125.1v3.3l-1.6,7.1c0,2.5,2.1,4.4,4.6,4.1l10.7,0.6c6.4,2.5,19.8,3.7,26.7,3.7h0.8h9.3
		C395.4,557.4,396.4,554.5,392.3,553.5"/>
	<path class="st1" d="M351.4,260.4c-1.7,0.2-3.6,0-5.6,0c-0.3-0.1-0.6-0.2-1.3-0.2c-1.2,0.3-1.8,0.3-3.5,0.4c-1.3,0-3.3-0.1-4.6-0.2
		c-4.4,0.4-8.9,0.2-13.4,0.3c0,1.2,0,2.3,0,3.2l-0.2,0.1c0.1,0.4,0.2,1.1,0.2,1.8h28c0-0.2-0.1-0.5,0-0.7c0,0.4,0.1,0.3,0.1,0.5v0.1
		h0.5c0-0.1,0-0.2,0-0.3C351.6,263.9,351.5,262.1,351.4,260.4"/>
	<path class="st1" d="M292.3,260.8h-0.2C292.2,260.8,292.2,260.8,292.3,260.8c0-0.1,0-0.1,0-0.2c-1,0.1-3.2-0.1-2.4,0.3
		c-2.6-0.2-6.1,0.2-8.7-0.1c0.2,0.1-0.4,0.1-0.7,0.2c-0.2,0-0.4,0-0.6,0l0.6,4.8h11.4c0-0.2-0.1-0.5,0-0.7c0,0.4,0.1,0.3,0.1,0.5
		v0.1h0.5c0-0.1,0-0.2,0-0.3C292.4,264.1,292.3,262.4,292.3,260.8"/>
	<path class="st1" d="M321.9,260.6l-0.2-0.1c-4.8,0.4-10.6,0-14.7,0.3l0.4-0.3c-1.3-0.1-2.9,0.1-2.6,0.3c-1.3-0.1-3.2,0.2-4-0.1
		c-1.3-0.1-1.6,0.2-2.7,0.2c-2.1-0.1-3.1-0.1-4.7-0.1c0,1.1,0,2.2,0,3.1l-0.2,0.1c0.1,0.4,0.2,1.1,0.2,1.8h28c0-0.2-0.1-0.5,0-0.7
		c0,0.4,0.1,0.3,0.1,0.5v0.1h0.5c0-0.1,0-0.2,0-0.3C322,264,321.9,262.2,321.9,260.6"/>
	<path class="st2" d="M293.5,263.9c0-0.9,0-2,0-3.1c-0.2,0-0.4,0-0.7,0c0,0,0,0-0.1,0h-0.4c0.1,1.6,0.2,3.2,0.3,4.6
		c0,0.2,0,0.3,0,0.3h0.9c0-0.7-0.1-1.3-0.2-1.8H293.5z"/>
	<path class="st2" d="M292,265.6c-0.1-0.2-0.1-0.1-0.1-0.5c0,0.2,0,0.4,0,0.7h0.1C292,265.7,292,265.7,292,265.6"/>
	<path class="st2" d="M323,263.9c0-1,0-2.1,0-3.2c-0.3,0-0.7,0-1,0l-0.2-0.1c0.1,1.6,0.2,3.4,0.3,4.8c0,0.2,0,0.3,0,0.3h0.9
		c0-0.7-0.1-1.3-0.2-1.8L323,263.9z"/>
	<path class="st2" d="M321.6,265.6c-0.1-0.2-0.1-0.1-0.1-0.5c0,0.2,0,0.4,0,0.7h0.1C321.6,265.7,321.6,265.7,321.6,265.6"/>
	<path class="st2" d="M352.6,263.9c0-1,0-2.2,0-3.5c-0.3,0-0.5,0-0.8,0.1l-0.1-0.2c-0.1,0-0.3,0-0.4,0c0.1,1.7,0.2,3.6,0.3,5.1
		c0,0.2,0,0.3,0,0.3h0.9c0-0.7-0.1-1.3-0.2-1.8H352.6z"/>
	<path class="st2" d="M351.2,265.6c-0.1-0.2-0.1-0.1-0.1-0.5c0,0.2,0,0.4,0,0.7h0.1C351.2,265.7,351.2,265.7,351.2,265.6"/>
	<path class="st0" d="M338.4,553.6v-15h19.2l-1,7.7l12.3,4.3c0.8-2,2.9-3,5.5-3.5c4.2,1.3,8.4,2.4,11.8,3.2
		c-1.6,0.8-3.3,1.6-4.8,2.5c-2.3,1.3-4.7,2.7-6.7,4.5h-0.8c-6.9,0-13.7-1.3-20.1-3.7H338.4z"/>
	<path class="st0" d="M353.6,552.4c8,2.8,15.9,3.6,22.5,3.7c-0.5,0.4-1,0.8-1.5,1.3h-0.8c-6.9,0-13.7-1.3-20.1-3.7h-15.3v-1.2
		L353.6,552.4L353.6,552.4z"/>
	<path class="st0" d="M374.3,547.1c-2.6,0.5-4.7,1.5-5.5,3.5l-12.3-4.3l-0.2-5.9c-7.9,4.2-17.9,1.5-17.9,1.5v-3.3h19.2
		C360.3,542,367.3,544.9,374.3,547.1"/>
	<path class="st0" d="M386.1,550.3c4.2,1,7.2,1.5,7.2,1.5c4,1,3.1,5.5-1.2,5.5h-17.5c2-1.8,4.3-3.2,6.7-4.5
		C382.9,552,384.5,551.1,386.1,550.3"/>
	<polygon class="st0" points="353,557.4 338.4,557.4 338.4,553.6 353.6,553.6 	"/>
	<path class="st0" d="M309.7,553.6v-15h-19.2l1,7.7l-12.3,4.3c-0.8-2-2.9-3-5.5-3.5c-4.2,1.3-8.4,2.4-11.8,3.2
		c1.6,0.8,3.3,1.6,4.8,2.5c2.3,1.3,4.7,2.7,6.7,4.5h0.8c6.9,0,13.7-1.3,20.1-3.7H309.7z"/>
	<path class="st0" d="M294.4,552.4c-8,2.8-15.9,3.6-22.5,3.7c0.5,0.4,1,0.8,1.5,1.3h0.8c6.9,0,13.7-1.3,20.1-3.7h15.3v-1.2
		L294.4,552.4L294.4,552.4z"/>
	<path class="st0" d="M273.7,547.1c2.6,0.5,4.7,1.5,5.5,3.5l12.3-4.3l0.2-5.9c7.9,4.2,17.9,1.5,17.9,1.5v-3.3h-19.2
		C287.7,542,280.8,544.9,273.7,547.1"/>
	<path class="st0" d="M262,550.3c-4.2,1-7.2,1.5-7.2,1.5c-4,1-3.1,5.5,1.2,5.5h17.5c-2-1.8-4.3-3.2-6.7-4.5
		C265.2,552,263.6,551.1,262,550.3"/>
	<polygon class="st0" points="295,557.4 309.7,557.4 309.7,553.6 294.4,553.6 	"/>
	<path class="st3" d="M279.1,319.5l5.1,213.5h30.3l9.6-222.1l9.6,222.1H364l5.1-213.5c1-15.4,0.6-30.8-1.3-46.1h-87.3
		C278.5,288.7,278.1,304.1,279.1,319.5"/>
	<rect x="282.4" y="530.3" class="st3" width="34" height="9.3"/>
	<rect x="332.2" y="530.3" class="st3" width="34" height="9.3"/>
	<rect x="280.4" y="265.8" class="st0" width="87.3" height="9"/>
	<path class="st2" d="M332.9,275.6h-17.6c-0.5,0-0.8-0.4-0.8-0.8v-9.5c0-0.5,0.4-0.8,0.8-0.8h17.6c0.5,0,0.8,0.4,0.8,0.8v9.5
		C333.7,275.2,333.3,275.6,332.9,275.6 M316.1,274h16v-7.9h-16V274z"/>
	<rect x="292.5" y="265.8" class="st3" width="3.7" height="10.1"/>
	<rect x="352.1" y="265.8" class="st3" width="3.7" height="10.1"/>
	<path class="st3" d="M268,283.8c-0.5-10.8-3-20.7-3-20.7l-10.9,0.1c0,0-2.1,8.7-2.8,18.4c-0.1,0.1-0.1,3.5-0.1,7.2
		c-0.1,7.3,0.4,14.5,1.3,21.7c0.5,3.8,0.9,7.1,0.9,7.1c0,2,1.6,3,2.4,2.5c1.4-0.8,2.1-1.9,2.1-5.8c0,0-0.4-22.4-0.4-24.7
		c0-1.2,1-2.1,2.1-2.1l0,0c1.2,0,2.1,1,2.1,2.1v6.8c0,1.6,1.1,3.1,2.6,3.3c2,0.3,3.7-1.2,3.7-3.1v-12.3
		C268.1,284.3,268.1,284.1,268,283.8"/>
	<path class="st3" d="M322.9,42.6L322.9,42.6c-2.3,0-4.6,0.2-6.9,0.6c-0.6,0.1-1.2,0.2-1.8,0.4c-7.1,1.8-12.3,6-14.8,13
		c-1,3-1.9,6-3.6,8.7c-0.4,0.6-0.3,1.4,0.2,1.9c0.5,0.6,1.1,1.1,1.6,1.7c0.5,0.5,0.6,1,0.1,1.6c-0.8,1-1.5,2-2.1,3
		c-0.8,1.3-1.7,2.5-2.4,3.8c-0.7,1.5,0,3,1.6,3.5c0.8,0.3,1,0.8,0.9,1.5c-0.1,0.5-0.4,1-0.8,1.5c-0.3,0.5-0.4,2,0.6,2.6
		c0.1,0,0.1,0.1,0.2,0.2c-0.8,0.7-0.2,3.2,1.5,3.4c0.7,0.1,1,0.4,0.9,1.1c-0.1,0.9-0.3,1.9-0.4,2.8c-0.3,2.5,0.8,4,3.2,4.6
		c1.7,0.5,3.4,0,5.1-0.3c1.4-0.2,4.1-0.6,4.1-0.6s0.1,11.1,0,12.5l12.8,19.8l14.4-19.5c-1.4-4.2-1-19.5,1.5-23.3
		c0.1-0.2,0.3-0.5,0.4-0.8c2-4,4.8-8,5.9-12.3c1.1-4.2,1.6-8.4,1.2-12.7c-0.3-3.6-1.6-6.9-3.6-9.8c-2.2-3.1-3.5-4.2-6.8-6.2
		c-1.5-0.9-4.1-1.8-5.8-2.1c-0.6-0.1-1.5-0.3-2.3-0.4C326.2,42.7,324.5,42.6,322.9,42.6"/>
	<path class="st4" d="M395.2,150.9c0-14.5-8.6-29.2-26.2-33.7l-13.8-2.9c-0.7-0.2-1.3-0.3-2-0.4l-11-2.3c-1.3-1.3-2.1-3.2-2.5-4.8
		c-0.3-1.3-1.8-2-2.9-1.3l-8.6,5l-4.9,13.7l-4.9-13.8l-7.8-4.8c-1.1-0.7-2.5-0.2-2.9,1c-0.5,1.6-1.5,3.5-3,4.9l-27.7,5.8
		c-17.6,4.5-26.2,19.2-26.2,33.7l-2.3,51.5c-0.8,18.2-0.8,36.3-0.1,54.5l1.3,16.5h19.8l5.5-83.6l4.9,75.7h88.6l4.2-83.4h22.8v-31.3
		L395.2,150.9L395.2,150.9z"/>
	<path class="st0" d="M342.8,51.7c-2.2-3.1-3.5-4.2-6.8-6.2c-1.5-0.9-4.1-1.8-5.8-2.1c-0.6-0.1-1.5-0.3-2.3-0.4
		c-1.7-0.2-3.4-0.4-5-0.4c-2.3,0-4.6,0.2-6.9,0.6c-0.6,0.1-1.2,0.2-1.8,0.4c-5.1,1.3-9.1,3.8-12,7.7h14.5v7.6c0,0,8.8,1.2,8.8,10.4
		h3.8c0.9-1.8,2.3-3,3.8-3c2.6,0,4.8,3.3,4.8,7.3c0,3.8-1.9,6.9-4.3,7.2l4.9,7.2c0.1-0.2,0.2-0.5,0.3-0.6c0.1-0.2,0.3-0.5,0.4-0.8
		c2-4,4.8-8,5.9-12.3c1.1-4.2,1.6-8.4,1.2-12.7C346.1,57.9,344.9,54.5,342.8,51.7"/>
	<path class="st5" d="M304.7,221.6h-93.5c-4.3,0-7.8-3.5-7.8-7.8v-65.5c0-4.3,3.5-7.8,7.8-7.8h93.5c4.3,0,7.8,3.5,7.8,7.8v65.5
		C312.5,218.1,309,221.6,304.7,221.6"/>
	<circle class="st2" cx="254.6" cy="182.2" r="5"/>
	<path class="st5" d="M365.2,221.1H210v1.3c0,4.4,3.5,7.9,7.9,7.9h139.4c4.4,0,7.9-3.5,7.9-7.9L365.2,221.1L365.2,221.1z"/>
	<path class="st5" d="M321.3,161.7c0,1.1,0.9,2,2,2s2-0.9,2-2s-0.9-2-2-2C322.2,159.7,321.3,160.6,321.3,161.7"/>
	<path class="st5" d="M321.3,177.5c0,1.1,0.9,2,2,2s2-0.9,2-2s-0.9-2-2-2C322.2,175.5,321.3,176.4,321.3,177.5"/>
	<path class="st5" d="M321.3,130.1c0,1.1,0.9,2,2,2s2-0.9,2-2s-0.9-2-2-2C322.2,128.2,321.3,129.1,321.3,130.1"/>
	<path class="st5" d="M321.3,145.9c0,1.1,0.9,2,2,2s2-0.9,2-2s-0.9-2-2-2C322.2,143.9,321.3,144.8,321.3,145.9"/>
	<path class="st5" d="M321.3,193.2c0,1.1,0.9,2,2,2s2-0.9,2-2s-0.9-2-2-2C322.2,191.3,321.3,192.2,321.3,193.2"/>
	<path class="st5" d="M321.3,209c0,1.1,0.9,2,2,2s2-0.9,2-2s-0.9-2-2-2C322.2,207,321.3,207.9,321.3,209"/>
	<path class="st5" d="M321.3,224.8c0,1.1,0.9,2,2,2s2-0.9,2-2s-0.9-2-2-2C322.2,222.8,321.3,223.7,321.3,224.8"/>
	<path class="st5" d="M321.3,240.6c0,1.1,0.9,2,2,2s2-0.9,2-2s-0.9-2-2-2C322.2,238.6,321.3,239.5,321.3,240.6"/>
	<path class="st5" d="M321.3,256.3c0,1.1,0.9,2,2,2s2-0.9,2-2s-0.9-2-2-2C322.2,254.4,321.3,255.2,321.3,256.3"/>
	<path class="st3" d="M315.6,220.8c10.8,0.5,20.7,3,20.7,3l-0.1,10.9c0,0-8.7,2.1-18.4,2.8c-0.1,0.1-3.5,0.1-7.2,0.1
		c-7.3,0.1-14.5-0.4-21.7-1.3c-3.8-0.5-7.1-0.9-7.1-0.9c-2,0-3-1.6-2.5-2.4c0.8-1.4,1.9-2.1,5.8-2.1c0,0,22.4,0.4,24.7,0.4
		c1.2,0,2.1-1,2.1-2.1l0,0c0-1.2-1-2.1-2.1-2.1H303c-1.6,0-3.1-1.1-3.3-2.6c-0.3-2,1.2-3.7,3.1-3.7h12.3
		C315.1,220.8,315.4,220.8,315.6,220.8"/>
	<path class="st4" d="M337.2,110.3l33.2,7c17.6,4.5,26.2,19.2,26.2,33.7c0,0-0.7,62.7-0.6,66.7c0.3,12.6-10.1,22.9-22.8,22.5
		l-39.6-1.5v-18.8l29.2-4.6c4.2-0.6,7.2-4.3,7-8.5l0.4-23.4L337.2,110.3z"/>
	<polygon class="st6" points="333.4,223.7 333.4,223.6 333.7,223.6 	"/>
</g>
<g id="Layer_2" class="st7">
	<path class="st8" d="M210.6,220c12.5-0.6,22,0.1,33.9-0.2c-0.3,1.4,0.7,0.5,1.8,0c-0.2,0.1,0.1,0.4,0,0.5c0.5-0.5,1.4-1.1,1.9-0.4
		c-0.3,0.4,0.2,0.1,0.5,0.1c0.6-0.7,8.2-0.9,6.4-0.5c0.9-0.3,1.2,0.4,1.7,0.1c0.3-0.3,1.2-0.5,0.8,0.3c0.7-0.9,1.8-0.3,2.9-0.5
		c-0.1,0.9,2.3-0.6,1.9,0.4c0.5,0.5,1.1-1,1.3-0.3c1.1-0.3,3,0.1,2.7,0.4c1.1-0.6,1.6-0.2,2.4,0.3c-0.2-0.2,0.2-0.1,0.3-0.2
		c0.4,0.5-0.4-0.7,0.8-0.2c0.3-0.2,0.7-0.1,0.2,0c0.2,0.6,0.8-0.5,0.4,0.1c1.5,0.1,5.1-0.9,7,0.3c0.4-0.2,0.4-1,1.4-0.4
		c-0.1-0.5,0.3,0.4,0.6,0.1c0-0.3,0.1-0.1,0.2,0c0.1-0.1,0.1-0.4,0.3-0.2c0.1,0.5,0.7-0.4,1,0c0.1,0.3,0.6,0.4,0.3,0
		c1.1,0.8,3.9-1.1,4,0.4c0.4,0.2,0.8-0.4,0.6-0.4c1,0,0.5,0.3,0.4,1.2c0.7,0-0.4,0.4,0.2,0.4c0.5-0.3,0.1-1.3,0.9-1.3
		c-0.6,0.4-0.1,0.3,0.4,0.3c-0.4-0.7,0.8,0.3,0.4-0.5c0.8-0.8,0.3,1.5,0.9-0.2c0.1,0.5,0.5,0.5,0.7,0.2c0.4,0.4,1.9,0.5,0.8-0.1
		c0.5,0.1,0.5,0.1,0.9-0.1c-0.1,0.3,0.1,0.2,0.1,0c0.4-0.1,0.1,0.4,0.4,0.3c-0.6,0.8,0.6-0.3,0.7-0.3c-1,0.5,0.9,0.6,0.3,0
		c1.5,0,0.3,1.5,1.3,1.3c0-1.7,0.7-0.4,1.1-0.7c0.1-0.3-0.2-0.5,0.4-0.5c-0.2,0.2,0.4,0.8-0.4,0.6c-0.1,0.5,0.8,0.6,0.7,0.1
		c-0.4-0.5,0.7,0.3,0.1-0.7c0.4,0.2,0.6-0.4,1,0.2c-0.7,0.3-0.7,0.2,0.1,0.2c-0.6,1.3,1.8-0.8,1.6,0.3c-0.9-0.3-1.6,0.2-1.1,1.1
		c0-0.2,1.7-1.4,1.2-0.5c3.1,0.1,0.7-0.7,2.1-0.5c-1.1,1.4,1.8,0.7,2.8,0.7c0.3,0.6,0.5,0.7,1.4,0.3c-0.1,1.4,1.6-0.1,2.5,0.7
		l-0.7,0.5c0.1-0.3,0.1-1-0.5-0.4c0.5-0.1,0.1,0.5-0.4,0.6c0.3-0.3-1,0.1-1.6,0.1c-6-0.7-18.8,0.7-26.4,0.3
		c-4.1-0.1-12.4,0-17.7-0.4c0.7-0.3-1-0.2-0.5-0.1C252.9,221.7,212.1,225.6,210.6,220"/>
	<path class="st8" d="M304.8,114.1c1.2,0.6,1.5,2.3,1.4,3c0.4,0,0.2,0.2,0,0.3c0.6-0.4,0.5,0.2,0.8,0.3c-0.1,0.4,1.2,1.3,1,1.4
		c0.3,0-0.1,0.2,0.3,0.1l-0.2,0.1c0.3-0.1,0,0.7,0.5,0.5c-1.2,0,1,1,0.2,1.5c0.6,0.2,0.1,0.4,0.6,0.5c-0.1,0-0.1,0-0.2,0
		c0.3,0,0,0.2,0.2,0.2c-0.6,0.1,0.2,0,0.1,0.1c-0.4,0,0.2,0.3,0.3,0.3c-0.2,1.1,0.9-0.1,0,1.5c0,0.6,0.8-0.8,0.4,0.2
		c0.1-0.2,0.3-0.5,0.4-0.8c-0.1,0.4,0,0.3,0.1,0c0.1,0.1-0.1,1.7,0.1,0.4c-0.1,0.6,0.1-0.3,0.1-0.1c-0.1,0.8,0-0.2,0.1-0.3
		c0-0.3-0.1,0.6-0.1,0.4c0,0.6,0.2-0.5,0.2,0.3c0-0.9,0,0.1,0,0.1c0,0.3,0-0.1,0-0.1c0-0.2,0,0.2,0,0.2c0.1-0.5,0.3-0.2,0.2-1
		c0,0.4,0,0.5,0.1,0.8c0-0.6,0,0.7,0,0.1c0,0.4,0-0.9,0-0.2c0-0.1,0-0.6,0-0.2c0,1.2,0,0,0-0.6c0,0,0.2,0.7,0.2,1
		c0-0.1-0.1-0.6-0.1-0.9c0,0.1,0,0.2,0,0.2c-0.1-0.8,0,0-0.1-0.6c0.1,0.2,0.1-0.1,0.2,0.3c-0.2-1.2,0.2,0.5,0.1-0.3
		c0.2,0.7,0.2,0.3,0-0.2c0.2,0.3,0-0.4,0.4,0.4c0.1,0.3-0.1-0.6-0.2-0.7c0.1,0.2-0.1-0.3,0.1,0.1c-0.1-0.2,0.1,0-0.1-0.3
		c0.1-0.1,0.5,0.2,0.3-0.1c-0.1,0.1-0.2-0.3,0.2,0.1c0.1-0.2-0.5-0.5-0.1-0.3c-0.4-0.3,0.3,0,0.5-0.2c-0.2,0-0.1-0.1-0.2-0.2
		c0.3-0.2-0.3,0-0.3-0.3c0.6,0.2-0.3-0.5,0.2-0.3c-0.2,0,0.4,0.2,0.2,0.1c-0.1-0.1-0.4-0.2-0.3-0.2c0.8,0.4-0.2-0.3,0.3-0.4
		c0.2,0-0.1-0.3-0.1-0.4c0.3,0,0.7,0.3,0.5,0.1c-0.6-0.2-0.5-1.2,0.1-1.2c0.8,0.2-0.8-0.3,0-0.5c-0.5-0.1,0.6,0-0.1-0.3
		c0.4,0.1-0.3-0.4,0.2-0.1c-0.6-0.4,0.6-0.4,0-0.5c0.9-0.1-0.4-1.8,0.7-1c-0.1-0.3-0.2-0.2-0.4-0.5c0.1,0,0.3,0.1,0.4,0.2
		c-0.1-0.3,1,0.6,1.2,0.5c-0.7-0.4-1.3-0.6-0.9-0.8c-0.5-0.4-0.1,0.1-0.6-0.5c0.7,0.4,0.8,0.3,0.1-0.1c0.1,0,0.3,0.1,0.4,0.2
		c0.2,0-0.4-0.3,0.1-0.2c-0.4,0,0.7-0.6-0.2-0.4c0.2,0.1,0-0.1-0.1-0.4c0.3,0.2,0.2,0.1,0,0c0-0.2,0.5,0.1,0.5,0.2
		c0.3-0.2-0.7-0.3-0.3-0.5c0.3,0.5,1,0,0.2,0c0.2-0.1,0.5-0.3,1.4,0.1c0-0.3-0.8-0.5-1-0.7c0-0.2,1,0.3,0.4-0.1
		c-0.7-0.3-0.6-0.5,0.1-0.1c-0.4,0.1,0.8,0.3,0.1,0c-0.2-0.1-0.3-0.1-0.8-0.4c0.4,0.2-0.1-0.1-0.1-0.2c0.3,0.1,0.9,0.7,0.9,0.2
		c-0.4-0.1-0.6-0.7,0-0.4c-0.6,0.3,0.4,0.7,0.9,0.8c-0.4-0.1-0.9-1-0.4-0.5c0.3-0.6,0-0.6-0.6-0.8l0.2,0.1c-0.1-0.3,1.4,0.9,0.8-0.2
		c0.3,0,0.2-0.3,0.2-0.5c0.6,0.2,0.5,0.1,0.3,0c0,0,0.4-0.1,0-0.4c0,0.1,0.5,0.3,0.2,0.1c1,0.4-0.3-0.8,0.5-0.5l-0.1-0.1
		c0.2,0.1,0.3,0.1,0.2,0c0.7,0.6-0.1,0.1-0.1,0.3c0.2,0,0.5,0.5,0.4,0.2c0.3,0.3,0,0.2-0.2,0.1c0.5,0.2,0,0.4,0.2,0.6
		c-0.7-0.6-0.8-0.3-0.2,0.1l-0.2-0.1c0.4,0.2-0.1,0.9-0.3,0.7c0.4,0.2-0.2,2.1-0.5,1.7c0.2,0.1-0.2,0-0.2,0c0.4,0,0.4,1,0.2,0.8
		c-0.2,0.7-0.5,1.2-0.6,2.5c-0.1-0.1-0.3,0.9-0.4,1.1c-0.3-0.3-0.8-0.1-0.1,0.1c-0.3,0.2-0.2,1.1-0.7,0.9c0.3,1.6-1.6,4-2.4,6.2
		c-0.1-0.4-0.4,1.2-0.4,0.3c-0.1-0.2,0,0.9-0.2,0.2c0.1,0.9-0.6,1.9-0.7,2.9c-0.3,0-0.1-1.7-0.3-0.5c0-0.2,0,0.4,0,0.2
		c-0.3-0.5-0.2-0.5-0.2,0.4c-0.1-1.1-0.3-1-0.3-1.4c-1.9,0.5-4.4-8.1-5-8.8h0.1c-1.6-0.6-1.1-4-2.2-5.3
		C303.8,114.2,304.5,113.9,304.8,114.1"/>
	<path class="st8" d="M342.4,113.7c0.1,1.4-1.1,2.5-1.9,2.7c-0.1,0.6-0.5,2.6-0.9,2.9c0.2,0.1-0.3,0.2-0.1,0.6
		c-0.3-0.6-1.2,1.4-1.2,1.4c-0.6-0.3,0.4,0.7-0.3,0.1c0.2,0.2,0.1,0.3,0.1,0.4c0-0.2-0.2,0.1-0.2,0.2c-0.2-0.2,0,0.6-0.5,1.1
		c-0.7-0.3,0.1,0.2-0.3,0.7c-1.2-1.6,0.1,1.2-0.7,0.2c0,0.4,0.5,1,0.1,0.8c0.2,0.1,0.1,0.8-0.2,0.3c-0.1-0.6-0.2,0.1-0.2,0
		c0,1.1-0.3,1.7-0.8,2.2c0-0.4-0.1,0.9-0.1,0.1c-0.3,0.9-0.8,2.5-0.8,1.1c0,0.7,0.2-0.8,0.2-0.2c-0.1-0.2-0.1,1-0.2,0.2
		c0-0.2,0.2-0.9-0.1-0.3c-0.1,0.4-0.1-0.2-0.1,0.3c-0.1-0.3,0-0.8,0.1-1.2c0,0-0.2,0.9-0.2,0.3c-0.1,0.8-0.1-0.2-0.2,0.3
		c-0.3-0.8-0.1-2.8-0.5-1.5c0-0.6-0.5-0.2,0-0.9c0.1-0.4-0.4-0.2-0.5,0.1c0.1-0.3-0.3-0.1,0-0.4c-0.4-0.4-0.5-1.3-0.1-1.4
		c0.1-0.3-0.6,0.1-0.6-0.2c0.3,0,0.1-0.3-0.1-0.2c0.6-0.3,0.1-0.3,0.5-0.6c-0.5,0.1,0-0.1-0.1-0.1c-0.2,0.2-0.2,0.2-0.4,0.2
		c0.4-0.4-0.4-0.1,0.1-0.3c-0.2,0.2,0.4-0.1,0.1-0.1c-0.5,0.1-0.2,0,0-0.1c-0.4,0.3-0.3-0.2-0.7-0.3c0.7-0.3,0.3-0.4-0.2-0.2
		c0.1-0.4-1.1-1.1-0.1-1.3c0-0.1-1,0.4-0.6-0.2c-0.1,0.1-0.1,0.1-0.2,0.1c0.5-0.1,0.2-0.4,0-0.2c0.4-0.2-0.3,0,0.2-0.2
		c-0.9,0.1,0.2-0.7-0.5-0.3c0.6-0.6-1.5-0.9-0.3-1.2c-0.2-0.2-0.4,0-0.7-0.1c0.5-0.4,0.3-0.1,1.2-0.5c0.7-0.5-0.6,0.2-1,0
		c0.2,0,0.5,0,0.2-0.2c-0.5,0.3-0.3,0.1-0.2-0.1c-0.4,0-0.5,0.2-0.6,0c1.3-0.4-0.4,0,0.4-0.5l-0.2,0.1c0.2-0.2,0.2-0.8-0.2-0.2
		c0.1-0.3-0.5-0.1-0.1-0.3c-0.5,0.3,0.1-0.3,0.2-0.2c0.2-0.4-0.7,0.1-0.6-0.1c0.6,0.1,0.8-0.6,0.1-0.2c0.5-0.4-0.6,0.2,0.2-0.5
		c0.2,0.1,1.2-0.3,0.7-0.4c-2,0.8,0.2-0.6-1.1,0.1c-0.8-0.2,0.6-0.2,0.7-0.5c-0.6,0-0.4,0-1.1,0.2c0.3,0-0.5-0.2,0.6-0.3
		c-0.6-0.2,0.4-0.3,0.1-0.5c-0.5,0.2-0.8-0.1-0.3-0.3c-0.3,0.5,0.9,0.1,1.2-0.2c-0.4,0.2-1.4-0.1-0.6-0.1c-0.2-0.9-1.1,0-0.8-0.2
		c0.1-0.5,1.1-0.4,0.1-1.4c0.4-0.2,0.5-0.4,0.4-0.3c-0.1,0,0.1-0.3-0.4-0.2l0.4-0.1h-0.1c0.5,0,0.4-0.4,0-0.2
		c-0.4-0.5,0.2-0.6-0.1-0.7h0.6c-0.1,0-0.8,0.4-0.3,0.3c0-0.1,0,0-0.1,0c0.4-0.1,0.9-0.3,0.5,0c0.4-0.1,0.3,0.2,0.5,0.4
		c-0.4,0.2-0.7-0.2-0.6,0.2c0.6-0.2,1.2,0.2,0.7,0.8c0.5,0,1.5,1.7,0.9,1.8c1.5,0.9,2.3,3.9,3.2,5c-0.1-0.4-0.4,0.4,0.2,0
		c-0.2,0.3,0.4,0.4,0.2,0.7c0.6,0.3,0.3,1.3,1.1,2.2c0,0.1,0,0.2-0.1,0.2c0.2-0.2-0.2,0.5,0.1,0c-0.1,0.1,0,0.1-0.1,0.2
		c0.1-0.1,0,0.2,0.1,0.4c0,0,0,0.3-0.1,0.4c-0.1,0.3,0.2-0.5,0,0.2l0.1-0.3c0,0.4,0.2,0.1,0.2-0.1c0,0.4-0.1,1.7,0,0.8
		c0,0.2,0-0.4,0-0.2c0,0.4,0,0.9,0-0.2c0,0.3,0.1,0.7,0.1,0.3v0.3c-0.1-0.7,0.1-1.3,0-2l0,0c0.6-1,1.6-3,2.5-3.1
		C337.3,118.1,342.1,112.1,342.4,113.7"/>
	<path class="st8" d="M366.5,240.1c-10.8,0.1-20-1-29.6-1.3c-5.5,0.9-2.3-7.3-3-10.4c0.7-0.9-1.2-7.5,0.5-7.9c0,0.4-0.3-1.7,1.1-1.6
		c-0.4,0.2,0.3,0.3,0.1,0.5c3.3-2.2,11.2-3.2,14.3-4.2c-0.6,0.7,1.4-0.2,1.3-0.4c2.7-0.2,5.7-0.9,8.2-1.5c-0.8,0.9,0.6,0.1,1.1,0
		c-0.4-0.8,5.3-1,4.2-1.1c0.5,0.3,2.9-1.7,2.9-0.4c0.5-0.1,0.7-0.6,1.1-0.2c-0.3-0.2,0.2-0.2,0.3-0.3c-0.3,0.2,0.3,0.1,0.5,0
		c-0.5-0.2-0.7,0-0.1-0.4c0.2,0.4,0.8-0.2,0.9,0c-0.4-0.1,0.2,0.6,0.2-0.2c0,0.2,0.4,0.3,0.4,0.1c-0.1-0.1-0.2-0.3-0.1-0.2
		c-0.2-3.7-0.5-7.6-0.3-11.2c-0.4,0.2,0.4-0.4,0.1-0.9c-0.5-0.1,0.1-2.8-0.3-2.6c0.6-2-0.5-4.1-0.2-5.9c0.9,0.1,0.3-1.3,0.1-0.8
		c-0.2-2.2,1.1,0.1,1.2-0.9c1.3,0.2-0.9-0.6-1-1.3c0.5,1,0.3-0.1,0.3-0.6c-0.5,0.4-0.4-0.3-0.1-0.5c-0.6-0.4-0.5,0-0.6-0.9
		c0.3-0.2,0.6,0.5,0.7,0c-0.9,0.3,0.2-4.7-0.8-2.6c0.2-0.5,0-0.8-0.2-1.3c0.3,0.1,0.2-0.2,0-0.2c-0.1-0.6,0.4-0.1,0.3-0.7
		c0.8,0.9-0.3-0.7-0.3-0.9c0.5,1.5,0.7-1.4,0-0.6c0.3-0.7-0.4-0.5,0.4-1.6c0.4,0.7,0.3,0,0.8,0.1c-0.1-0.6-0.6-0.7-1.2-1.1
		c0.2-0.5,1-1.7,0.1-1.1c-1-2.1,0.8,0.3,0.7-0.7c0-0.7-0.3-0.7-0.5-0.3c-0.1-0.6,0.3-0.7-0.1-0.9c-0.4,1.2-0.3,0-0.6-0.7
		c0.8-0.9,0.1,0.8,0.6,0.6c0-0.4-0.2-0.6-0.1-1c1.1,0.9-0.8-2.7,0.3-2.4c-0.3,1.1,0.1,2.4,1,1.6c-0.1,0-1.4-2.4-0.5-1.8
		c-0.1-1,0.1-2.3-0.4-2.7c-0.1,0.8-0.9,0.5-0.2,0.4c0-0.9,0-0.4,0.8-0.5c0.1-1.3-0.4-4.8,0.3-5c-0.1-0.2,0.2-1.1-0.3-1.3
		c1.5,0.1-0.2-2.4,0.7-3.7c0,0.4,1.1,1.4,0,0.9c1.1,69.9,13.6,49.9-34.9,62.9l0,0c-0.2,4.9,0.1,10.2,0,15.2l0,0l0,0
		C338.9,237.6,372,235.4,366.5,240.1"/>
</g>
</svg>
