<?xml version="1.0" encoding="utf-8"?>
<!-- Generator: Adobe Illustrator 25.2.1, SVG Export Plug-In . SVG Version: 6.00 Build 0)  -->
<svg version="1.1" xmlns="http://www.w3.org/2000/svg" xmlns:xlink="http://www.w3.org/1999/xlink" x="0px" y="0px"
	 viewBox="0 0 600 600" style="enable-background:new 0 0 600 600;" xml:space="preserve">
<style type="text/css">
	.st0{fill:#CDD1DE;}
	.st1{fill:#40BDB2;}
	.st2{fill:#FFFFFF;}
	.st3{fill:#69A7DA;}
	.st4{fill:#00175A;}
	.st5{fill:#D0D5E3;}
	.st6{fill:#F06B6D;}
</style>
<g id="Layer_1">
	<g>
		<path class="st0" d="M383.7,312.4c0,0-2.8-18.2-3-18.5c-2.2-9.9-5.2-15.9-5.2-16l0,0l-5.7-65.2l-9.7-65c-0.9-6-6.4-17.5-17.1-19.7
			c-2.9-0.9-6.2-1.4-9.9-1.4c-9.5,0-15-6.1-15-11.4v-11c3.8-2.3,6.7-5.9,7.4-9.9c1.3-0.3,2.2-1.4,2.2-2.8v-8.7
			c0-1.3-0.9-2.4-2.1-2.7v-7.3c0-8.1-6.6-14.6-14.7-14.6H305c-8.1,0-14.6,6.6-14.6,14.7v7.3c-1.2,0.4-2.1,1.5-2.1,2.8v8.7
			c0,1.6,1.3,2.9,2.9,2.9h0.2c1.3,4.3,3.7,7.9,7.2,10.2v10.6c0,5.3-4,11.3-15,11.5c-3.9,0-7.4,0.6-10.4,1.6
			c-10.3,2.5-15.5,13.7-16.4,19.6l-3.3,22.9v-0.7c0,0.3-0.1,0.7,0,0.9l-6.1,41.9l-5.4,65.2l0,0c0,0.1-3,6.2-5.2,16
			c-0.2,0.3-2.9,18.5-2.9,18.5c-0.1,0.5,0.1,2.7,0.3,3.3l4.4,12.6c0.3,1,1.4,1.6,2.3,1.2c1.6-0.7,2.5-2.5,1.9-4.2l-1.5-7.4
			c-0.6-2.9-0.6-5.9-0.2-8.8c0.3-1.9,0.5-3.5,0.9-5.9c0.2-1.2,1.3-2.1,2.5-1.9l0,0c1.2,0.2,2.1,1.3,1.9,2.5l-1.5,9.8
			c-0.2,1.2,0.6,2.4,1.8,2.7l0,0c1.4,0.3,2.7-0.6,2.9-2l2.2-15.1c0-0.3,0-0.5,0-0.7c1.1-11.2-0.9-17.3-0.9-17.3l0,0l13.4-63.6
			l5.1-27.4l2,14.8l0,0c0,0.1,0,0.1,0,0.2l3.2,23.7c0.9,6.8,0.6,13.7-1,20.5c-5.1,22.1-9.1,52.9-8,72.6l11.5,90.5l1.4,5
			c-2.2,14.4-4,38.1-2.8,52.6l9.9,48.7c1,6.5,0.8,14.4-0.8,21.2c-0.5,2.1-2.1,3.7-4.2,4.3c-7.5,2.1-25.5,7.1-25.5,7.1
			c-3.5,1.2-2.6,6.3,1,6.3l36.1-4.3l7.1-1.2c2.9-0.5,4.7-3.4,4-6.2l-0.9-3.4l-1.1-8.5l7.5-216.3l8.5,216.2l-1,8.6
			c0,0-0.7,1.7-1.3,3.5c-0.9,2.3,0.5,5,2.9,5.6c3.6,1,8.4,1.5,8.4,1.5l36.1,4.1c3.7,0,4.5-5.1,1-6.3c0,0-17.9-5-25.4-7.1
			c-2.1-0.6-3.7-2.2-4.2-4.3c-1.5-6.7-1.8-14.6-0.8-21.1l9.7-48.7c1-12.8-0.5-36.4-3-52.6l1.4-5l11.1-90.5c1-19.7-3.5-50.4-8.8-72.5
			c-1.6-6.7-2-13.6-1.1-20.5l5.1-39.5l5.4,28.1l13.7,63.5l0,0c0,0-2,6.1-0.8,17.3c0,0.2,0,0.5,0,0.7l2.3,15.1c0.2,1.4,1.5,2.3,2.9,2
			l0,0c1.2-0.3,2-1.4,1.8-2.7l-1.5-9.8c-0.2-1.2,0.7-2.4,1.9-2.5l0,0c1.2-0.2,2.4,0.6,2.6,1.9c0.3,2.3,0.6,4,0.9,5.9
			c0.4,2.9,0.4,5.9-0.2,8.8l-1.4,7.4c-0.6,1.7,0.3,3.5,1.9,4.2c0.9,0.4,2-0.2,2.3-1.2l4.3-12.6C383.7,315.1,383.8,312.9,383.7,312.4
			z"/>
		<path class="st0" d="M237.4,170.2c0-0.2-0.1-0.3-0.2-0.3C237.3,170.6,237.1,169.8,237.4,170.2z"/>
		<path class="st0" d="M237.7,170.8c-0.1,0-0.2,0.3-0.3,0.4C237.8,171.4,237.7,171,237.7,170.8z"/>
		<path class="st0" d="M240,180.8c-0.1,0-0.1,0-0.2-0.1c0,0.1,0.1,0.2,0.2,0.3C240,180.9,240.1,180.8,240,180.8z"/>
		<path class="st0" d="M240.6,183.3l-0.5-0.8C240.3,182.8,240.5,183.3,240.6,183.3z"/>
		<path class="st0" d="M240.6,185.7c-0.1,0-0.1-0.1-0.2-0.1C240.5,185.9,240.6,185.9,240.6,185.7z"/>
		<path class="st0" d="M240.9,186.2c0.1-0.1,0.1-0.2,0.1-0.4C240.7,185.8,241,186.2,240.9,186.2z"/>
		<path class="st0" d="M241.4,191.5c0.1-0.1,0-0.4,0-0.5C241.2,190.9,241.5,191.3,241.4,191.5z"/>
		<path class="st0" d="M241.9,193.5c0-0.1,0-0.1,0-0.2l-0.2,0.1C241.8,193.5,241.9,193.7,241.9,193.5z"/>
		<path class="st0" d="M252.4,173.4c0-0.1-0.1-0.2-0.1-0.2C252.2,173.5,252.2,173.6,252.4,173.4z"/>
		<path class="st0" d="M252.4,174c0.1-0.1,0.2-0.2,0.2-0.4C252.4,173.5,252.5,174,252.4,174z"/>
		<path class="st0" d="M251.5,178.9c-0.2-0.1,0,0.4-0.1,0.5C251.6,179.3,251.5,179,251.5,178.9z"/>
		<path class="st0" d="M251.5,181.6c0-0.1,0-0.1,0-0.2l-0.2,0.1C251.3,181.6,251.4,181.7,251.5,181.6z"/>
		<polygon class="st0" points="259.8,243.4 259.8,243.7 259.9,243.5 		"/>
		<path class="st0" d="M256.4,261.2c0,0,0.2,0.1,0.2-0.2C256.5,261.3,256.4,261,256.4,261.2z"/>
	</g>
	<path class="st1" d="M371.7,212.6l-7.9-65c-0.6-3.7-2.9-9.5-7.1-14c-4.4-5.6-16.4-9-25.6-9l-3.9-6.7c-0.7-1.2-2.4-1.3-3.2-0.2
		l-15.5,19.5l-16-19.5c-0.9-1.1-2.5-0.9-3.2,0.3l-3.9,6.7c-10.7,0-23.2,4.7-27.5,12.1c-2.7,3.8-4.2,8.1-4.6,11l-7.6,65l20.7,5.2
		l3.6-29.1l-0.9,79.6l79.3-0.2l-1.3-81l4,30.5L371.7,212.6z"/>
	<path class="st2" d="M352.3,327.6l-12.6,208.8l-23.4,0.1l-7.6-220.9l-6.6,220.9l-23.4,0.1l-13.5-208.7c-1-16.1,1.9-55.8,3.7-71.8
		l79.3-0.2C350,271.8,353.3,311.4,352.3,327.6"/>
	<path class="st3" d="M262.9,223.6l-16.7-2.9c-2.5-0.4-4.2-2.8-3.7-5.1l0.8-3.8c0.5-2.3,2.8-3.8,5.2-3.3l16.7,2.9
		c2.5,0.4,4.2,2.8,3.7,5.1l-0.8,3.8C267.6,222.6,265.3,224.1,262.9,223.6"/>
	<path class="st4" d="M339.5,79.8c-1.2-0.8-2.6-1.3-3.5-2.4c-3.3-3.9,2.8-9.5,2.2-14.6c-0.4-3.6-4-5.9-7.4-6.9s-7.2-1.3-10.3-3.1
		c-3.1-1.9-5.1-6.3-2.8-9.1c-6.2-3-14.2-1.8-19.3,3c-1.4,1.3-2.5,2.8-4.2,3.8c-3.2,1.9-7.2,1.2-10.9,1.5c-3.7,0.3-8,2.9-7.4,6.6
		c0.7,4.4,8,6,7.7,10.4c-0.1,1.7-1.5,3.1-2.4,4.5c-2.9,4.4-2.3,10.7,1.3,14.6c1.5,1.6,3.5,2.7,5.7,3.2V83c0-1.3,0.9-2.4,2.1-2.8
		v-7.3c0-8.1,6.6-14.7,14.6-14.7h5.9c0.5,0,1,0,1.5,0.1c7.4,0.7,13.2,7,13.2,14.5v7.3c1.2,0.4,2,1.4,2,2.7v8.7
		c0,1.3-0.9,2.5-2.2,2.8c-0.1,0.5-0.2,1.1-0.4,1.6c3.2,0.8,6.4,1.1,9.6,0.1C341.2,93.9,345.2,83.9,339.5,79.8"/>
	<path class="st5" d="M363.4,551.5l-28.4-10c-2.2,2.2-6,3.7-10.3,3.7c-3.3,0-6.3-0.8-8.5-2.2c-1.4,1.2-2.3,3-2.3,5v9.9h11.6l0.8-4.2
		l36.1,4.1C366.1,557.7,366.9,552.6,363.4,551.5"/>
	<path class="st5" d="M255.3,551.7l28.4-10.1c2.2,2.2,6,3.6,10.3,3.6c3.3,0,6.3-0.9,8.5-2.2c1.4,1.2,2.3,3,2.3,5v9.9h-11.6l-0.8-4.2
		l-36.1,4.3C252.7,558,251.8,552.9,255.3,551.7"/>
	<path class="st3" d="M355.7,223.6l16.7-3c2.5-0.4,4.2-2.8,3.7-5.1l-0.8-3.8c-0.5-2.3-2.8-3.8-5.2-3.3l-16.7,3
		c-2.5,0.4-4.2,2.8-3.7,5.1l0.8,3.8C351,222.5,353.3,224,355.7,223.6"/>
	<path class="st4" d="M307.9,94.9c-5.9,0-5.7,2.8,0,2.8C313.7,97.7,313.7,94.9,307.9,94.9z"/>
	<path class="st2" d="M283.9,65.9c0.9-1.4,0.7-2.5-0.8-4s-0.3-6.8,3.7-6.4c4,0.4,4.3,1.8,4.3,4s-3.6,2.8-3.7,4.8
		c-0.2,2,0.9,1.6,1.5,0.4c0.6-1.2,4.2-5,7.5-3.8s3.4,7,0.1,7.2s-5.5-0.7-7-0.5c-1.5,0.3,0.6,1.7,2.4,2.1c1.8,0.3,4.7,1.3,3.5,4.3
		s-3.7,3.4-5.7,2.2c-2-1.2-0.9-5.1-2.5-5.1c-1.6,0.1,1.8,5-1.4,6.1c-3.2,1.2-5.4,1.3-6.7-1.2s1.4-4.4,3-4.8s2.1-2.3,1.1-2
		c-1.1,0.4-3.6,2.2-6.6,0.5s-3.3-6.5,0.2-7.7C280.4,60.8,283.1,67.2,283.9,65.9z"/>
	<rect x="274.8" y="156" class="st5" width="23.5" height="5.1"/>
</g>
<g id="Layer_2">
	<path class="st2" d="M331.2,129.8c-4.9,7.9-10.3,13.8-15.2,21.1c-0.1-1.5,0.1-0.9-0.9-1c0.7-0.8-1.3,0.1-0.9-1.2
		c-0.1-0.8-1.9-0.7-2.2-2.3c-1.6-1.6-1.7-2.4-2.5-3.5c0.2-0.4-0.4,0.3-0.8-0.8c-0.3-1.1-0.2,1.6-0.6,0.2c-0.3,0-0.1,1.2-0.1,1.1
		c-1.8,1.2-1,1.9-2.6,2.4c0.2,1-0.8,1.4-2.1,4.1c-1.6-1.5-6.1-6.6-7.5-8.6c-0.6-0.1,1.2-0.5,0.9-0.7c-1,0.5-3,0-1.9-0.6
		c-0.6,0.6-1.3-2.1-1.3-0.6c-0.3-0.4-1.3-0.9-0.4-0.9c0-0.6-0.7,0.2-0.8-0.3c1.1-0.2-0.2-0.7-0.4-0.5c0.1-1,1.4-1.6-0.4-0.8
		c0.6-1.4-1.4,0.1-0.3-0.9c0,0.6,0.7-0.6-0.1-0.3c-0.1,0.6-0.2-0.3-0.5-0.1c0.1,0.7-0.3,0.1-0.7,0c0.2-0.8,0.3,0.3,0.6-0.2
		c-0.1-0.2-0.6-0.4-0.2-0.2c0.5-0.7-1.6-0.3-0.8-1c0,1,1.7,0.4,1.2-0.1c-0.9,0.6-0.8-0.6-1.4-1.2c-0.3-0.1-0.9,0.8-0.5,0.4
		c0.6-1.6-2.1-3.3-2.5-4.9c0.3,0.1,1.2,0,0.3,0.3c-0.1,0.4,0.5,0.3,0.1,0.2c5.1,3,12.3,13.3,16.3,17.1c7.6-12.7,4.8-4.9,12.7,1.4
		C320.1,143,327.5,128.5,331.2,129.8"/>
	<path class="st2" d="M309.4,148c0.7,2.6-0.9,3.8,0.6,6.3c-0.8-0.4,0.4,1.4-0.5,1.4c0.1,0,0,0.2,0.2,0.2c-0.5,0.2,0.4,1.4-0.4,1.9
		c1.3,0.6-0.5,0.4-0.2,0.7c1.1,0.4-0.4,0.2,0.8,0.5c-0.7,0.4,0.7,2.4,0,2.7c-0.1-0.4,0.2,0,0,0.1c-0.6-0.2,0,0.2,0.2,0.3
		c-0.1,0.2-0.9,0-0.1,0.2h-0.1c1,0.3-1,1.2,0.2,1.1c-0.1,0.4-0.9,0.2,0,0.5c0-0.1-0.4,1.2-0.1,0.9c-0.1,0.1-0.1,0.1-0.4,0
		c-0.1,0.1,0.7,0.3,0.2,0.3c0.5,0.2-1,0.3,0.1,0.6c-0.4,0-0.1,0.2,0,0.2c-0.7-0.3-0.2,0.1,0,0.1c-0.2-0.1-0.5,0-0.1,0
		c-0.1,0-0.1,0-0.1,0c0.7,0.3-0.3,0.8-0.2,0.8c0.9,0,0.5,1.1,0.1,1.2c-0.1,0.1-0.1,0,0.2,0.1c0.5-0.1-0.1,0.5,0.2,0.4
		c-0.5,0-0.2,0.1,0,0.1h-0.2c0.8,0-0.6,0.7,0.2,0.5c-0.8,0.3,0.8,1.4-0.3,1.2c1.2,0.7-0.5,0.3-1.1,0.5c1.3,0.4,0.7,0.3,1.3,0.4
		c-0.5-0.1-0.2,0.1,0.1,0c0.6,0.3-1.3,0.1,0.2,0.3c-0.7-0.1-0.1,0.2-0.4,0.2h0.2c-0.9,0.3,0.5,0.4,0.2,0.5c0.1,0,0,0.1,0.2,0.1
		c-0.1,0-0.2,0-0.2,0c0.4,0.1-0.9-0.1,0.2,0.3c-0.8-0.3,0.8,0.6-1.3,0.5c0.3,0.2,0.7,0.1,1.1,0.2c-0.3,0.2-0.8,0.2-0.1,0.2
		c0.6,0.5-0.7-0.2-0.7,0.1c1.5,0.6,0.7,0.2,0.1,0.6c1.3,0.9-0.5-0.5-0.8,0.1c1.1-0.1-0.4,1.1,1.2,0.7c-2-0.1-0.4,2.7-2.1,2
		c1.1,0-0.7-0.3,0.1-0.3c-0.5-0.4-0.1-0.4,0.3-0.4C307,174.2,305.8,148.3,309.4,148"/>
	<path class="st2" d="M373.4,209.4c-0.2,0.7-0.7,0.1-0.9,0.6c0-0.5-0.8,0.5-1.3-0.3c0-0.4-0.2,0.6-0.2,0c0,0.2-0.1,0.1-0.1,0.3
		c0-0.1-0.1-0.2-0.1-0.3c0.1,0.6-0.2,0.3-0.4,0.5c0.1-0.5-0.9,0.9-0.8,0.1c0,0.3-0.1,0.3-0.1,0.4c-0.1,0-1.4,0.2-2.2,0.3
		c-0.1-0.5-0.2,0.3-0.2-0.3c0,0.2-0.3,0.4-0.2,0.1c0,0.3-0.2,0-0.2,0.1c0-0.6-0.1,0.4-0.1-0.2c-0.1,0.6-0.6,0.4-0.8,0.1
		c-0.4,1.5-0.2-1.5-1,0.9c0-0.6-0.3,0.6-0.3-0.4c-0.3,0.2-0.1,0.9-0.2,0.4c-0.1,0.4-0.2,0.7-0.2,0.3c-0.3-0.1-0.4,0.4-0.5,0.2
		c0-0.2-0.1,0.3-0.1,0c-0.3,0.3-0.5,0.6-0.6,0.2c0,0.3,0.2-0.3,0.2,0c-0.2,0-0.3,0.6-0.3-0.1c-0.1,0.4-0.3,0.7-0.3,0
		c0,0,0,0.3,0,0.4v-0.1c0.1,0.6-0.7,0-0.7,0.3c-0.2-0.4-0.2-0.2-0.2,0.2c-0.6,0,0-0.8-0.5-0.3l0.1,0.3c-0.1-0.2-0.1,0.2-0.2-0.1
		c0,0.1-0.5,0.4-0.6-0.1c0,0.2,0.1,0.5,0-0.1c-0.2,1.2-0.3-0.1-0.5,0.2l-0.1-0.3c0.1,0.2,0,0.1,0,0.2c-0.1-0.4,0,0.2-0.1,0.3
		c-0.1-0.5-0.1,0.3-0.2-0.2c0.1,0.2,0.1-0.4,0-0.1c0,0.1,0.1,0.4,0,0.3c0-0.2-0.1-0.4-0.1-0.1V213c-0.1,0.4-0.4,0-0.5,0.4
		c0.1-1.4-0.7,1.4-1.1-0.2c0.1,0.3,0,0.4-0.2,0.6c-0.1-0.7-0.2,0.3-0.3-0.2c0,0.3-0.1,0.3-0.1,0c-0.1,0.8-0.4-0.3-0.3,0.4
		c-0.4-0.6-0.4,0.3-0.9,0.2c-0.1-0.4-0.1-0.6-0.3,0.1c0-0.1-0.1-0.3-0.1-0.4v0.1c-0.2-2.3-0.2-0.1-0.5,0.1c-0.1-0.6-0.1,1.1-0.3-0.4
		c0.1,0.2-0.1,0.3,0,0.7c-0.1-0.5-0.1-0.2-0.3-0.4v0.2c0-0.1-0.1-0.1-0.1-0.3c-0.1,0.4-0.3-0.3-0.2,0.3c0.1,0.1,0-0.2,0.1,0.1
		c-0.1-0.3-0.1,0.1-0.1,0.1v-0.1c0,0.1-0.1,0-0.1,0.2c0-0.1,0-0.2,0-0.2c0,0.5-0.1-0.1-0.2-0.1c-0.1-0.7,0,0.4-0.2,0.3
		c0.1-0.6-0.4-0.6-0.2,0c-0.1-0.2-0.2-0.2-0.1,0.1c-0.4-1-0.3-1.7-0.3-0.2c-0.5-1.5,0,1.4-0.4-0.3c0.3,0.1-0.3-0.9,0,0.1
		c-0.3,0,0.1,0.6-0.2,0.8c-0.2-0.3,0.1-0.7-0.1-0.5c-0.1-1.1-0.3,0.8-0.5,0c0.3,0.2,0.3-0.7,0.1-1.1c0.1,0.4,0.1,0.4-0.1,0.8
		c0-0.1-0.1-0.3,0-0.4c-0.6,0.1-0.3,0.3-0.2,0.9c-0.4-1.7-0.7-0.2-1.2-1c0,0.1-0.2-0.2-0.2,0.3v-0.4v0.1c-0.1-1-0.2,0.7-0.4-0.1v0.1
		c0-0.2-0.1-0.3-0.1-0.1l0.1-0.5c0,0.1,0,0.9,0.1,0.3c-0.3,0.3,0.1-0.6-0.2-0.4c0.2-0.4,0,0.2,0.2-0.2c0.4-0.2,0,0.4,0.2,0.6
		c0-0.2,0-0.5,0-0.6c-0.2,0.4,0.5-0.5,0.5,0.1c0-0.4,1.6-0.9,1.4-0.3c0-0.2,0.1,0.1,0.1,0.1c-0.2-0.3,0.5-0.9,0.4-0.6
		c0.1-0.5,0.4,0.1,0.5,0.2c0.2-1,1.5-0.6,2.3-1.1c-0.2,0.5,3.6-1,4.5-0.5c0.8,0.2,1.8-0.5,2.3,0c1-0.9,5.4-1.8,6.5-1.7v0.1
		C369.1,208.3,373.9,208.5,373.4,209.4"/>
	<path class="st2" d="M351.5,217.4c0.3-0.6,0.9-0.4,1-0.2c0.6-1,1.5,0.7,1.5-0.2c0.2,0.5-0.1-0.2,0.5-0.2c-0.1,0.4,1-0.8,0.8,0
		c0-0.3,0.1-0.3,0.1-0.4c0.1,0.3,0.2-0.4,0.2,0c0.1-0.3,0.5,0.2,0.7-0.3c-0.3,0.9,1.3-0.6,1.2,0.3c0.1-0.1,0.2-0.3,0.3,0
		c0.1-0.3,0.1-0.2,0.1,0.1c0-0.2,0.3-0.4,0.2-0.1c0-0.3,0.2,0,0.2-0.1c0,0.6,0.1-0.4,0.1,0.2c0.2-0.5,0.6-0.4,0.7-0.1
		c0.4-1.2,0.3,0.3,0.7,0.1c0.1-1.2,0.2,0.1,0.3-1c0,0.2,0.1,0.3,0.1,0c0.3-0.3,0.1,0.7,0.3,0.3c0.1-0.1,0.1-0.8,0.2-0.3
		c0.3-0.7,0.5-0.2,0.8-0.4c0,0.2,0.1-0.3,0.1,0c0.3-0.3,0.5-0.6,0.6-0.2c0-0.3-0.2,0.2-0.2,0c0.1,0,0.4-0.6,0.3,0.1
		c0.1-0.4,0.3-0.7,0.3,0c0,0.1,0.1-0.6,0.1-0.3c0-0.6,0.7,0,0.7-0.3c0.1,0.4,0.3,0.5,0.2-0.1c0.4,0.2,0.5,0.8,0.4,0
		c0.1,0.2,0.1-0.2,0.1,0.1c0-0.1,0.5-0.4,0.6,0.2c0-0.2-0.1-0.5,0,0.1c0.2-1.2,0.3,0.1,0.5-0.2l0.1,0.3c-0.1-0.2,0-0.1,0-0.2
		c0.1,0.4,0-0.2,0.1-0.3c0.1,0.5,0.1-0.3,0.2,0.2c-0.1-0.2-0.1,0.4,0,0.1c0-0.1-0.1-0.4,0-0.3c0,0.2,0.1,0.4,0.1,0.1v0.1
		c0.4-0.9,0.8,0.9,0.6-0.4c0.3,0.1,1-0.6,0.9,0.3c0.1,0-0.2-0.7,0.2-0.4c0-0.1,0-0.1,0-0.2c0.1,0.7,0.2-0.3,0.3,0.2
		c0-0.3,0.1-0.3,0.1,0c0.3-0.5,0.5-0.1,1.2-0.6c0.2,0,0.2,0.7,0.3,0.1c0-0.2,0,0,0.1-0.2c0,0.1,0,0.3,0,0.4v-0.1c0,0.3,0,1.2,0,1.3
		c0-0.3,0.1-1.7,0.1-0.8c0.2,0.2,0.1-0.6,0.2-0.5c0,0.5,0.2,0.1,0.1-0.2c0.2-0.3,0.3,1.3,0.2-0.1c0.1,0.4,0.1,0.3,0.2,0.4v-0.2
		c0,0.1,0.1,0.1,0.1,0.3c0.1-0.4,0.3,0.3,0.2-0.3c-0.1-0.1-0.1,0.2-0.1-0.1c0.1,0.3,0.1,0,0.1-0.1v0.1c0-0.1,0.1,0,0.1-0.2
		c0,0.1,0,0.2,0,0.2c0-0.6,0.1,0.1,0.1,0.1c0.1,0.7,0-0.4,0.2-0.3c0,0.6,0.3,0.5,0.1,0c0,0,0.2,0.5,0.1,0c0.3,1.1,0.3,1.7,0.4,0.2
		c0.5,1.6-0.1-1.5,0.3,0.3c-0.2-0.3,0,1,0.1,0.1c-0.2-0.4,0,0.2,0-0.4c-0.2,0.1,0-0.9,0-0.3c0.3-0.9,0.1,1.6,0.7-0.1
		c-0.1,0.1-0.2,2.5,0.2,0.6c0,0.1,0.1,0.3,0,0.4c0.8,0.1,0.1-1,0.3-0.7c0,1.4,0.9,0,0.9,0.9c0-0.1,0.2,0.2,0.2-0.3v0.4v-0.1
		c0,0.9,0.2-0.6,0.4,0.1v-0.1c0,0.2,0.1,0.3,0.1,0.1c0,0.3-0.2,0.9-0.1,0.1c0-0.4-0.2,0.3,0,0c0.1,0.5-0.1,0.9-0.1,0.4
		c-0.2,0.8-0.3,0-0.3-0.3c0,0.7-0.4,1-0.6,0.4c-0.8,0.7-2.2,1-2.5,0.5c0.1,0.4-2.4,1.3-2.3,0.6c-0.1,0.2-0.8,0.9-0.9,0.2
		c-1.3,1-4.3,0.7-5.7,0.5c0.1,0.4-0.2-0.4-0.2-0.1c0.2,0.5-0.4,0-0.3,0C360.2,218.5,351.5,219,351.5,217.4"/>
	<path class="st2" d="M245,208.4c1.1-0.8,2.3,1,2.6,0.5c-0.2,0.4,2.2-0.2,2,0.1c0.1-0.3,0.1,0.2,0.2-0.1v0.2c0.1-0.4,0.1,0.2,0.2,0
		c0-0.3,0.3,0.2,0.3-0.1c-0.4,0.4,1.6,0.5,1.3,0.5c0,0.5,0-0.1,0.2,0.1c-0.3,0.5,0.4-0.2,0.1,0.3c0.1-0.2,0.1,0.1,0.3-0.1
		c-0.3,0.7,0.3-0.4,0,0.2c0.4-0.4,0.7,0,0.7,0.3c0.8-1.3,0,1.3,0.9-0.3c-0.3,0.9,0.1,0,0.2-0.2c-0.1,0.3,0,0.2,0.1,0
		c0.2,0.1,0,0.9,0.4,0.1c-0.1,0.3,0-0.2,0.1-0.1c-0.3,0.4,0.3-0.1,0.3-0.2c-0.3,0.4,0.2,0,0.3,0.3c-0.1-0.3,0.6,0.2,0.9-0.3
		c-0.2,0.3,0.1,0.4-0.2,0.4c0,0.2,0.2-0.3,0.1,0c0.3-0.2,0.1,0.1,0.1,0.3c0.3-0.4,0.5-0.5,0.3,0.2c0,0.1,0.2-0.6,0.2-0.3
		c0.5-0.7,0.6,1.1,0.9,0.1c0.1,0.3,0.3-0.1,0.1,0.5c0,0.4,0.2-0.3,0.2,0c0-0.5,1-0.2,0.9,0.4c0.5-0.6,0.3-0.3,0.5,0.2
		c0.3-0.6,0.2-0.3,0.5-0.7c-0.1,0.3-0.1,0.7,0.1,0.1c-0.2,0.1,0,0.6,0,0.1c0.3-0.2,0.3,0.3,0.6-0.2c-0.2,1.5,0.2-0.5,0.5,0.2
		c0.1-0.5,0.9,0,0.5,0.4c0.1,0.1,0.1-0.8,0.4-0.3c0-0.5,0.2,0.5,0.2-0.1v0.2c0.2-0.1,0.4-0.4,0.4,0.1c0,0.1,1.5-0.6,1,0.2
		c0.3-0.1,0.1-0.2,0.4-0.4c-0.1,0.2-0.5,2.4-0.1,1c0.3-0.8,0.3,0.2,0.5-0.7c-0.1,0.7,0.6-1.1,0.1,0.5c0-0.2,0.2-0.3,0.2-0.6
		c0,0.1,0,0.3-0.1,0.4c0,0.2,0.2-0.4,0.1,0.1c0.1-0.2,0.1-0.2,0.1,0.1c0,0,0.2-0.3,0.1,0.1c0.2-0.2,0.1-0.1,0-0.4
		c0,0.2,0.1,0.1,0.3-0.2c0,0.3,0,0.1,0.1,0s-0.1,0.4,0,0.3c-0.2,0.5,0.2-0.4,0.3-0.3c-0.3,0.5,0.1,0.6,0,0.1
		c0.2,0.1,0.1,0.5-0.1,1.3c0.2-0.3,0.2-0.8,0.4-1.1c0,0.7,0.1,0.5,0.1,0.1c0.5-0.7-0.4,0.7-0.1,0.7c0.4-0.3,0.2-0.5,0.5-1
		c0,0.4,0.1-0.3,0.2-0.1c0.1,0.4-0.2,0.2-0.2,0.6c0.4-0.4-0.2,0.8,0.2,0.4c0.7-0.9-0.2,0.1-0.1,0.8c0.4-1.1,1,0.3,1-1.2
		c-0.2,1.8,0.2,0.2,0.8,1.3c0-0.1,0.1,0.3,0.3-0.2c-0.4,0.9,1-0.2,0.2,1c0-0.1,0.2-0.8-0.1-0.4c0.3-0.2-0.3,0.5,0,0.3
		c-1.2,0-0.3,0-0.5-0.6c0,0.8-3.7,0.2-3.5-0.2c-1.3,1-3-0.6-3.6,0c-5.5-1.7-10.2-0.8-16.7-3.8C244.5,209.2,244.7,208.5,245,208.4"/>
	<path class="st2" d="M267.1,218.5c-0.4,0.5-1.1,0.1-1.1-0.1c-0.7,0.8-1.2-1-1.6-0.3c0.2-0.4-2.5,0.5-2.2-0.1
		c-0.1,0.4-0.1-0.2-0.2,0c0,0.3-0.3-0.2-0.3,0.1c0.3-0.4-1.4-0.5-1.3-0.5c0-0.5,0,0-0.2,0c0.3-0.5-0.4,0.2-0.1-0.3
		c-0.1,0.2-0.1-0.1-0.2,0.1c0.3-0.7-0.3,0.4,0-0.2c-0.4,0.5-0.7,0-0.7-0.3c-0.9,1.3,0.1-1.2-0.9,0.4c0.3-1-0.3,0.6-0.2,0
		c-0.3,0.6,0-0.5-0.3-0.2c-0.1,0.1-0.3,0.7-0.1,0.2c-0.5,0.6-0.1,0.2-0.7,0.1c0,0.5,0-0.1-0.1,0c0-0.2-0.3,0.4-0.6,0
		c0,0.1-0.2,0.3-0.2,0.3c0.2-0.2-0.1-0.5,0.2-0.4c0-0.2-0.2,0.3-0.1,0c-0.3,0.2-0.1-0.1-0.1-0.3c-0.3,0.4-0.5,0.5-0.3-0.2
		c0-0.1-0.2,0.6-0.2,0.3c-0.4,0.7-0.9-1.3-0.8,0c0-0.4-0.2,0.2-0.2-0.2c0.3-0.7-0.2-0.2-0.1,0.1c-0.3-0.1-0.7-0.2-0.7-0.7
		c-0.5,0.7-0.4,0.1-0.6-0.2c-0.4,0.7,0.1,0.2-0.4,0.7c0.1-0.3,0.1-0.7-0.1-0.1c0.2-0.1,0-0.6,0-0.1c0-0.1-0.1-0.1-0.2,0.2
		c-0.1-0.3-0.2-0.3-0.4,0c0.1-1.4-0.1,0.5-0.6-0.2c-0.1,0.5-0.9,0.1-0.5-0.4c-0.2,0,0,0.9-0.4,0.4c0,0.5-0.2-0.5-0.2,0.1v-0.2
		c0,0-0.1,0.4-0.1,0.2c0-0.5-0.2,0.3-0.3,0c0.1-0.5-0.3,0.1-0.2-0.5c-0.5,0.8-1.1,0.5-0.8,0c-0.2,0.1-0.5,0.9-0.3,0.1
		c-0.3,0.2,0.3-1,0.2-1.2c-0.3,1.1-0.5,0.8-0.7,1.4c0.1-0.7-0.1,0.3-0.3,0.2c0.2-0.6,0.1-0.9-0.1-0.1c0-0.1,0-0.3,0.1-0.4
		c0-0.2-0.2,0.4-0.1-0.1c-0.1,0.2-0.1,0.2-0.1-0.1c0,0-0.2,0.3-0.1-0.1c-0.2,0.1-0.1,0.2,0,0.5c0-0.2-0.1-0.1-0.3,0.2
		c0-0.5-0.1,0.3-0.2-0.3c0.2-0.6-0.2,0.5-0.3,0.4c0.3-0.5-0.1-0.6,0-0.1c0,0-0.1-0.1,0-0.3c-0.3,0.7-0.1-0.7,0-1
		c-0.2,0.3-0.2,0.8-0.4,1.1c0-1.3-0.1,0.3-0.3,0.1c0.7-2.2-0.7,1.3-0.3-0.4c-0.4,0.6,0.2-0.7-0.2-0.3c-0.7,0.9,0.2-0.1,0.1-0.8
		c-0.6,1-0.7-0.2-1.1,1c0.5-1-0.6-0.8-0.6-1.1c0,0.1-0.1-0.2-0.3,0.2c0.2-1.1-0.1-0.1-0.5-0.4c0.1-0.3,0.1-0.3,0.3-0.6
		c0,0.1-0.2,0.8,0.1,0.4c-0.3,0.2,0.3-0.5,0-0.3c0.7-0.2,0.5-0.2,0.5,0.4c0.2-0.7,0.5-0.9,0.8-0.3c0.1-0.4,1.9-0.4,1.5,0.1
		c6.6-0.2,14.9,1.3,21.4,3.3C267.6,217.7,267.4,218.4,267.1,218.5"/>
</g>
<g id="Layer_3">
	<path class="st4" d="M269,220.6c3.3-9.3,7.5-25.5,5.7-34.6c0,0.5-0.2-0.4-0.5-0.2c0.4,0.9-0.5-0.1-0.1-0.4c1,0.4,0.2-0.3,0-0.7
		c-0.8,0.9,1.3,3.3-0.3,3.3c0.5,0.1,0.2,0.9,0.3,1.1c-0.3,0.1-0.5,2.9-0.1,4.2c-0.1,0.7-1.1,0-0.9,0.8c-0.6,0.1,0.2,0.3,0.3-0.3
		c0.6,0.3,0.2,1.4,0.2,2.4c-0.3-0.8-0.4,1.8,0.3,1.2c0.3,0.7-0.5,0.2-0.6,0.9c-0.1-0.7-0.7-1.2-0.2-2c-1.1-0.2,0.6,2-0.4,2.3
		c0-0.1,0-0.2,0-0.3c-0.2,0.4,0,0.5-0.1,0.9c-0.6,0,0.3-1.2-0.5-0.6c-0.1,2.3,0.7,0,0.4,1.6c0.2-0.2,0.5-0.3,0.4,0.4
		c-0.2,0.6-0.8,0.1-0.4-0.1c-0.5-0.6-1,0.4-0.2,0.5c0.5,0.8-0.5,0.3-0.5,1c1.1,0.4,1,1.9,0.1,0.9c-0.5,0.5-0.8,0.7-0.4,1.1
		c-0.1-0.2-0.3,0-0.3,0.2c0.8-0.7,0.1,1.8-0.1,0.4c-0.3,0.5,0.7,0.8,0.2,1.3l-0.1-0.4c-0.8,0.5-0.1,0.8-0.5,0.7
		c0,0.4,0.1,0.8-0.2,1.2c1-1.3-0.2,0.8,0.1,1.2c-29.5-32.6-11.6-6.9,9-34.2c-21.8-2.5-28,24.4-26,2.6c1-3.1,1.9-10,2.9-13.7
		c0.1,2.6,0.7-2,1-1.3c0.1-0.3,0.2-0.5,0.2-0.8c0,0.1-0.1,0.1-0.1,0.2c0.1-1.1-0.8,0.3,0-1c0.5,0.9,0.2-0.3,0.3-0.6
		c-0.5,0.5-1.1,1.1-1.3,2.2c1.1-0.3-0.2,1.6-0.5,0.8c0.4,0.3-0.2,1.1-0.2,1.3V164c-0.9,2.1-1.9,5.5-2.4,7.9c-0.6-1,0.1,2,0.2,1.7
		c-2,1.2-0.1-2.8-1.1-1.6c-0.4,0.8,0.6,2-0.2,2.5c0-0.1,0-0.2,0-0.3c-0.1,1.1-0.3,1.3-0.3,0.1c-0.7,0.3,0.2,1.1-0.3,1.1
		c-0.1,1.2,0.9-0.7,0.4,1.1c0.2-0.1,0.5-0.4,0.4,0.5c-0.1,0.7-0.9,0.2-0.4,0c-0.3-0.5-1,0.1-0.5,0.5c1.1,0.3-0.2,0.6-0.2,1.2
		c0.6,0.3,1.8,1.4,0.6,1.1v0.3c-0.4-1-1.1,0.4-0.6,0.8c-0.1-0.2-0.3,0.1-0.3,0.3c0.7-0.8,0.2,2.1-0.2,0.6c-0.4,0.6,0.9,0.6,0.4,1.3
		l-0.1-0.4c0.1,0.6-0.4,0.1-0.3,0.7c0.1,0.1,0.3,0.4,0,0.2c0,0.6,0.3,0.8,0.1,1.4c0.7-2.2,0.1,2.3-0.3,2.2c0.8,0,0.8,0.9,0,0.4
		c0.2,0.8,0,0.5,0.6,1c-0.3,0.2-0.4,0.8,0.1,0.5c0,0.8,0,0.9,0.4,1.6c0.1-0.3,0.5,0,0.6,0.3c0,0.9-0.4-0.8-0.4,0.3
		c-0.2,0.4-1.1-1.4-0.8-0.2c-1,0.3,0.2,0.6,0.1,1.6c-1.3,0.3,0.4,4.1-0.1,5.2c-4-8.2-9.5-15.6-11.9-23.3c1.7,1.8-0.7-2-0.3-1.7
		c-0.2-0.3-0.3-0.4-0.5-0.6c0,0.1,0.1,0.1,0.1,0.2c-0.8-0.3-0.3,0-1-0.6c0.3,1.4,2.2,2.2,0.9,2.8c1.1,1.3,1.7,5.1,2.1,6.5
		c0.1,0.7,0.3,1.5,0.5,2.2c-7.7-6.1,0.3,12.7,0.9,15.1c-19.9-23.7-38.3-3.4,0.7,2.8c-0.3-0.4,0.5-0.1,0,0c0.2,0.1,0.4,0.1,0.5,0.6
		c0.1-0.3,0.5,0,0.6,0.3c0,0.9-0.4-0.8-0.4,0.3c-0.2,0.4-1.1-1.4-0.8-0.2c-1,0.2,0.2,0.6,0.1,1.6c-1.3,0.6,0.7,4.1-0.2,5.9
		c0.3-0.8,0.1,2,0,1.9c-0.2,0.4,0.7,1.4,0,1.6c0.1,0.1,0.1,0.3,0.2,0.1c-0.2,0.4-0.2,1.4-0.1,2c0.3-1,0.6,0.6,0.1,0.1
		c-0.3,5.3,0.3,9.7,0.2,12.8c0.1-1.3,0.5,0.1,0.1-0.1c0.1,0.2,0,0.7,0.2,0.4c-0.5,1.3-0.7,2.4-0.1,3.8c-0.5-0.3,0,1.1-0.1,0.1
		c0.1,1.2,0,3.4,0.1,4.8c-19-24.8-20.7-2.2,1.2,10.3c0.1,1.6,0.8,4.6,1.3,5.9c-0.2,0.7,0.5,1.5,0.4,2.4c-0.9-0.8,1,2.1,0.2,1.4
		c1.3,2.4,1.4,4.9,0.8,7c-3.4,17.3,7.2,33.1-6.8,46.7c10.3-14.1,12.5-12.6,7.2,3.6c1.1,5.6,3.8-12.2,5.9-10.5
		c-1.9-4.2,1.2-9.2,0.3-13.9c-0.4,0.6-0.5-1.5-0.1-0.5c-0.3-1.6,0.5-3.2,0.3-4.6c0.1,0,0.1,0,0.1,0.1c4.4-12.7,3.6-26.4,6.5-38
		c-0.3,0.5,0.2-1.6,0.2-0.7c1.5-5.8,3.5-12.4,5.6-18C286.4,223.8,289.3,197.5,269,220.6z M266.6,221.4c0.1,0.2-0.2,0.6-0.3,0.6
		C266.3,221.8,266.4,221.6,266.6,221.4z M270.2,212.8c0,0.9-0.6-0.3-0.7-0.5C270.3,212.3,271.1,213.6,270.2,212.8z M270.4,209.8
		c-0.3,0.4-0.3-0.4-0.4-0.5C270.3,209.2,270.2,209.8,270.4,209.8z M269,212.1c-6.3,2.6-11.7,7.4-15,13.4
		C255.1,208.9,250.3,197.6,269,212.1z M247.1,204.2c-0.6,1.2-1.2,2.4-1.7,3.6c0.1-1.8-0.1-3.9-0.1-5.6
		C245.9,202.9,246.5,203.6,247.1,204.2z M245.1,208.8c0-0.1,0-0.1,0-0.2C245.2,208.6,245.1,208.7,245.1,208.8z M244.6,248.4
		c0,0,0,0.1,0,0.3C244.5,248.4,244.5,248.3,244.6,248.4z M247.3,252c-1-10.2-2.7-22.3-1.8-33c6-4.3,6.7-10.3,6.9-2.1
		c0.1,0.2,0,0.7,0.2,0.4c-0.5,1.2-0.7,2.3-0.2,3.8c-1-0.3-0.4,4.5-0.4,5.9c-0.8-0.4-0.4,1.1-0.1,1.6c-5-3.4-1.1,8.6-1.7,12.3
		c0.1-1.1-0.5,1.5-0.2,1c-0.4,0.6-0.1,1.6-0.4,2.4c-0.5-1,0.1,2.2-0.3,1.3c0.3,1.7,0.3,2-0.4,3.3c0,0.1,0.7,2.5,0.1,1.7
		c0.3,1.5,0.8,3.2-0.5,2.4C248.2,255.2,247.9,253,247.3,252z M249.1,267.1c0.1,0.4,0,0.4-0.1,0.4C249.1,267.4,249,267.2,249.1,267.1
		z M248.3,279.1c0.1-0.1-0.2-1.1,0.2-0.3c-0.1-3.9-0.3-7,0.5-10.8c1.5,9,3.9,16.8,1.1,25.7c-1.2-4.7-1.2-9.4-1.5-14.4
		C248.5,279.6,248.3,279.3,248.3,279.1z M250.7,296c0.3-0.6,0.6-1.2,0.8-1.8C251.5,296.9,251.6,301.4,250.7,296z M257.6,253.8v-0.1
		C257.7,253.8,257.7,253.8,257.6,253.8z M257.7,253.3c-0.1-0.1,0-0.2,0-0.3c-0.3,0.6-0.6,2.7-0.5,3.6c0.1-1-0.5,1.5-0.2,1
		c-0.2,1.5-0.6,2.2-0.3,3.6c-0.1-0.1-0.2-0.1-0.2-0.2c0.4,1.8,0.2,1.6-0.4,3c-0.1-0.1,0.8,2.1,0.1,1.4c0.2,1.4,0.9,2.9-0.5,2.4
		c-0.1,2.1-0.7,5.9-0.8,7c0,0.2-0.2,1.5-0.2,1c-0.1,0.2,0,1.8-0.2,1.1c0,2.1-1.2,4.1-1.5,6.5c-1-13.5-4.4-26.1-1-39.6
		c1.1,3.5,4.2,6.1,5.7,9.1C257.8,252.8,257.7,253.2,257.7,253.3z M263.9,228.8c0.6,0.7-1.4,2.6-1.2,3.8c0.4,0.1-0.2,0.8-0.2,0.2
		c0.5,0.9-0.6,1.4-0.5,2.3c0.6-1,0.2,0.3,0.2,0c0,0.1-0.2,0.6,0.1,0.4c-1,0.8-1.1,1.9-1.1,3.2c-0.5-0.6-0.4,0.9-0.2-0.1
		c-0.2,1.1-1,2.9-1.3,4.2c0.5-0.2,0.5,1.1,0.2,1.2c-0.2,0.4-0.2-0.9-0.4,0.2c-5.8-10.6,0.9-13.7,6.8-22c-0.3,0.2-0.6,1-0.7,1.6
		C266.4,223,264.1,227.5,263.9,228.8z"/>
</g>
<g id="Layer_4">
	<path class="st6" d="M223.6,160.9c-2.2,7.2,1.9,14.8,9.1,16.9c7.2,2.2,14.8-1.9,16.9-9.1c2.2-7.2-1.9-14.8-9.1-16.9
		C233.3,149.6,225.7,153.7,223.6,160.9"/>
	<path class="st2" d="M235.3,173.6c-3.2-0.5-6.2-2.6-7.8-5.7c-1.5-2.7-1.8-7.2,0.5-10.7c1.9-3,6.1-4.8,9.2-5
		c3.5-0.3,7.1,1.4,9.2,4.2c2.1,2.8,2.8,6.6,1.8,10c-0.9,3.1-3.1,5.7-5.9,6.8c-1.4,0.6-2.9,0.7-4.4,0.5
		C237,173.8,236.1,173.7,235.3,173.6 M239.3,153.2c-0.7-0.1-1.4-0.1-2.1-0.1c-2.9,0.2-6.7,1.9-8.5,4.6c-2.1,3.2-1.8,7.3-0.5,9.8
		c1.5,2.7,4,4.5,6.7,5.1c-0.5-0.3-1-0.7-1.4-1.1c-2.1-2.1-2.9-5.7-1.7-8.8c1-2.7,3.8-4.4,5.9-4.4c2.1,0,4.3,1,5.4,2.4
		c1.2,1.6,1.2,4-0.1,5.6s-3.7,2.2-5.4,1.2c-0.6-0.3-1-0.7-1.2-1.2c-0.3-0.7-0.3-1.5,0.1-2.3c0.5-1.1,1.6-1.9,2.6-1.9
		c0.6,0,1.3,0.2,1.8,0.7c0.4,0.4,0.6,1,0.6,1.5c0,0.7-0.5,1.3-1.2,1.6c-0.6,0.3-1.3,0.2-1.7-0.2l0.6-0.7c0.3,0.2,0.7,0.1,0.8,0.1
		c0.3-0.1,0.6-0.4,0.6-0.8c0-0.3-0.1-0.6-0.4-0.8c-0.3-0.3-0.7-0.5-1.1-0.5c-0.7,0-1.5,0.6-1.9,1.4c-0.3,0.6-0.3,1.1-0.1,1.5
		s0.6,0.6,0.8,0.8c1.4,0.7,3.3,0.3,4.3-1c1-1.2,1-3.2,0-4.5c-0.9-1.2-2.8-2.1-4.6-2.1s-4.2,1.4-5,3.8c-1,2.8-0.4,6,1.5,7.8
		c1.9,1.9,5.1,2.5,7.8,1.4c2.5-1,4.6-3.4,5.4-6.2c0.9-3.1,0.3-6.6-1.7-9.2C244.1,154.9,241.8,153.6,239.3,153.2"/>
	<path class="st6" d="M271.2,148.8c2.3,7.1-1.6,14.8-8.7,17.2c-7.1,2.3-14.8-1.6-17.2-8.7c-2.3-7.1,1.6-14.8,8.7-17.2
		C261.2,137.8,268.9,141.6,271.2,148.8"/>
	<path class="st2" d="M254.4,161.9c-0.5-0.1-1.1-0.2-1.6-0.4c-2.8-1-5.1-3.5-6.1-6.6c-1.1-3.4-0.5-7.2,1.6-10
		c2.1-2.9,5.6-4.6,9.1-4.4c3.1,0.2,7.3,1.9,9.3,4.8c2.4,3.4,2.2,8,0.8,10.7c-2.1,4-6.3,6.4-10.3,6C256.3,162,255.4,162,254.4,161.9
		 M258.5,141.4c-0.4-0.1-0.7-0.1-1.1-0.1c-3.2-0.2-6.4,1.4-8.3,4c-1.9,2.6-2.4,6.1-1.4,9.2c0.9,2.8,3,5.1,5.5,6
		c2.7,1,5.9,0.3,7.8-1.6c1.8-1.9,2.4-5.1,1.3-7.9c-0.9-2.3-3.3-3.7-5.1-3.7c-1.8,0-3.7,0.9-4.6,2.2c-0.9,1.3-0.8,3.3,0.2,4.5
		s3,1.6,4.3,0.9c0.3-0.2,0.6-0.4,0.8-0.8c0.2-0.4,0.1-1-0.1-1.5c-0.4-0.8-1.2-1.3-1.9-1.4c-0.4,0-0.8,0.2-1.1,0.5
		c-0.2,0.3-0.4,0.6-0.3,0.8c0,0.4,0.3,0.6,0.6,0.8c0.1,0,0.5,0.2,0.8-0.1l0.6,0.7c-0.4,0.4-1.1,0.5-1.7,0.2
		c-0.7-0.3-1.2-0.9-1.2-1.5c0-0.5,0.2-1.1,0.6-1.5c0.5-0.5,1.1-0.8,1.8-0.8c1.1,0,2.1,0.7,2.7,1.9c0.4,0.8,0.4,1.6,0.1,2.3
		c-0.2,0.5-0.6,0.9-1.2,1.2c-1.8,1-4.2,0.5-5.5-1.1c-1.3-1.5-1.3-3.9-0.2-5.6c1-1.5,3.2-2.6,5.3-2.6s4.9,1.6,6,4.3
		c1.2,3.1,0.6,6.7-1.5,8.8c-0.4,0.4-0.9,0.8-1.4,1.1c2.7-0.6,5.2-2.6,6.6-5.3c1.3-2.5,1.4-6.6-0.7-9.8
		C264.4,143.4,261.2,141.9,258.5,141.4"/>
	<path class="st6" d="M265.7,172.7c-4,5.5-2.7,13.1,2.7,17.1c5.5,4,13.1,2.7,17.1-2.7c4-5.5,2.7-13.1-2.7-17.1
		C277.3,166,269.7,167.2,265.7,172.7"/>
	<path class="st2" d="M276.5,188.5c-0.8-0.1-1.6-0.4-2.4-0.8c-3.6-0.7-6.6-4-7.2-8c-0.5-2.7,0.6-6.7,3.6-9c2.5-2,6.6-2.3,9.3-1.6
		c3,0.8,5.6,3.3,6.6,6.3s0.4,6.4-1.4,9.1c-1.7,2.4-4.3,3.9-7.1,4C277.5,188.7,277,188.6,276.5,188.5 M277.6,175.4
		c-1.5-0.2-3.6,0.3-4.8,1.9c-1.7,2-2.1,4.9-1,7.1c1.1,2.1,3.6,3.6,6.2,3.5c2.4-0.1,4.8-1.5,6.4-3.6c1.7-2.4,2.2-5.5,1.3-8.2
		c-0.9-2.8-3.3-5-6-5.7c-2.5-0.7-6.2-0.4-8.5,1.4c-2.7,2.1-3.7,5.7-3.3,8.1c0.4,2.6,1.9,4.8,3.9,6.1c-0.3-0.3-0.5-0.7-0.7-1.1
		c-1.2-2.4-0.7-5.7,1.2-8c1.7-2,4.5-2.6,6.4-2c1.8,0.6,3.4,2.1,3.9,3.7c0.5,1.8-0.2,3.8-1.7,4.8c-1.6,1-3.8,0.8-5-0.6
		c-0.4-0.4-0.7-0.9-0.7-1.4c-0.1-0.7,0.2-1.4,0.8-2c0.8-0.8,1.9-1.2,2.9-0.9c0.6,0.2,1.1,0.6,1.3,1.2c0.2,0.5,0.3,1,0.1,1.5
		c-0.2,0.6-0.8,1-1.5,1c-0.6,0-1.2-0.2-1.4-0.7l0.8-0.5c0.2,0.3,0.5,0.3,0.6,0.2c0.3,0,0.6-0.2,0.7-0.4s0.1-0.5,0-0.8
		c-0.2-0.3-0.5-0.6-0.8-0.7c-0.6-0.2-1.4,0.1-1.9,0.6c-0.4,0.4-0.6,0.9-0.5,1.2c0,0.4,0.3,0.7,0.5,0.9c1,1,2.7,1.2,3.9,0.4
		c1.2-0.8,1.8-2.4,1.3-3.8c-0.4-1.3-1.7-2.6-3.3-3.1C278,175.4,277.8,175.4,277.6,175.4"/>
</g>
</svg>
